solid Exported from Blender-2.79 (sub 0)
facet normal 0.000000 0.000000 -1.000000
outer loop
vertex -0.024600 -0.003800 -0.005000
vertex -0.012202 -0.003800 -0.005000
vertex -0.024600 -0.007800 -0.005000
endloop
endfacet
facet normal -0.258819 0.965926 -0.000000
outer loop
vertex -0.008526 -0.003800 0.003242
vertex -0.008163 -0.003703 0.005000
vertex -0.008163 -0.003703 -0.005000
endloop
endfacet
facet normal 0.000000 0.000000 -1.000000
outer loop
vertex -0.003447 0.002893 -0.005000
vertex -0.006310 0.004585 -0.005000
vertex -0.004585 0.006310 -0.005000
endloop
endfacet
facet normal 0.000000 0.000000 -1.000000
outer loop
vertex -0.004500 0.000000 -0.005000
vertex -0.007800 0.000000 -0.005000
vertex -0.007418 0.002410 -0.005000
endloop
endfacet
facet normal 0.000000 0.000000 -1.000000
outer loop
vertex -0.003447 0.002893 -0.005000
vertex -0.004229 0.001539 -0.005000
vertex -0.006310 0.004585 -0.005000
endloop
endfacet
facet normal 0.000000 0.000000 -1.000000
outer loop
vertex -0.002250 0.003897 -0.005000
vertex -0.003447 0.002893 -0.005000
vertex -0.004585 0.006310 -0.005000
endloop
endfacet
facet normal 0.000000 0.000000 -1.000000
outer loop
vertex -0.002410 0.007418 -0.005000
vertex 0.000000 0.007800 -0.005000
vertex -0.000781 0.004432 -0.005000
endloop
endfacet
facet normal 0.000000 1.000000 0.000000
outer loop
vertex -0.012202 -0.003800 -0.005000
vertex -0.024600 -0.003800 -0.005000
vertex -0.012202 -0.003800 -0.001236
endloop
endfacet
facet normal 0.000000 0.000000 -1.000000
outer loop
vertex 0.015500 0.003750 -0.005000
vertex 0.002425 0.003750 -0.005000
vertex 0.015500 0.007800 -0.005000
endloop
endfacet
facet normal 0.000000 0.000000 -1.000000
outer loop
vertex 0.002425 0.003750 -0.005000
vertex 0.000000 0.007800 -0.005000
vertex 0.015500 0.007800 -0.005000
endloop
endfacet
facet normal 0.000000 -1.000000 0.000000
outer loop
vertex -0.012202 -0.007800 -0.005000
vertex -0.012202 -0.007800 -0.001236
vertex -0.024600 -0.007800 -0.005000
endloop
endfacet
facet normal -0.000000 0.000000 -1.000000
outer loop
vertex -0.002410 0.007418 -0.005000
vertex -0.000781 0.004432 -0.005000
vertex -0.002250 0.003897 -0.005000
endloop
endfacet
facet normal 0.000000 0.000000 -1.000000
outer loop
vertex -0.004585 0.006310 -0.005000
vertex -0.002410 0.007418 -0.005000
vertex -0.002250 0.003897 -0.005000
endloop
endfacet
facet normal 0.000000 0.000000 -1.000000
outer loop
vertex -0.004229 0.001539 -0.005000
vertex -0.007418 0.002410 -0.005000
vertex -0.006310 0.004585 -0.005000
endloop
endfacet
facet normal 0.000000 0.000000 -1.000000
outer loop
vertex -0.004500 0.000000 -0.005000
vertex -0.004229 -0.001539 -0.005000
vertex -0.007800 0.000000 -0.005000
endloop
endfacet
facet normal 0.000000 0.000000 -1.000000
outer loop
vertex -0.004500 0.000000 -0.005000
vertex -0.007418 0.002410 -0.005000
vertex -0.004229 0.001539 -0.005000
endloop
endfacet
facet normal -0.000000 0.000000 -1.000000
outer loop
vertex -0.006173 -0.007800 -0.005000
vertex -0.007800 -0.003074 -0.005000
vertex -0.003447 -0.002893 -0.005000
endloop
endfacet
facet normal 0.000000 0.000000 -1.000000
outer loop
vertex 0.000000 0.007800 -0.005000
vertex 0.000781 0.004432 -0.005000
vertex -0.000781 0.004432 -0.005000
endloop
endfacet
facet normal 0.000000 0.000000 -1.000000
outer loop
vertex -0.000781 -0.004432 -0.005000
vertex -0.006173 -0.007800 -0.005000
vertex -0.002250 -0.003897 -0.005000
endloop
endfacet
facet normal 0.000000 0.000000 -1.000000
outer loop
vertex 0.015500 -0.007800 -0.005000
vertex -0.006173 -0.007800 -0.005000
vertex 0.000781 -0.004432 -0.005000
endloop
endfacet
facet normal -1.000000 -0.000000 -0.000000
outer loop
vertex -0.007800 -0.003074 0.005000
vertex -0.007800 0.000000 -0.005000
vertex -0.007800 -0.003074 -0.005000
endloop
endfacet
facet normal 0.000000 0.000000 -1.000000
outer loop
vertex 0.015500 -0.003750 -0.005000
vertex 0.015500 -0.007800 -0.005000
vertex 0.002425 -0.003750 -0.005000
endloop
endfacet
facet normal 0.000000 0.000000 -1.000000
outer loop
vertex -0.024600 -0.007800 -0.005000
vertex -0.012202 -0.003800 -0.005000
vertex -0.012202 -0.007800 -0.005000
endloop
endfacet
facet normal -1.000000 0.000000 0.000000
outer loop
vertex -0.024600 -0.003800 0.005000
vertex -0.024600 -0.003800 -0.005000
vertex -0.024600 -0.007800 0.005000
endloop
endfacet
facet normal -1.000000 0.000000 0.000000
outer loop
vertex -0.024600 -0.007800 0.005000
vertex -0.024600 -0.003800 -0.005000
vertex -0.024600 -0.007800 -0.005000
endloop
endfacet
facet normal -0.000000 -1.000000 -0.000000
outer loop
vertex 0.015500 -0.007800 -0.005000
vertex 0.008520 -0.007800 -0.002092
vertex -0.006173 -0.007800 -0.005000
endloop
endfacet
facet normal 0.000000 -1.000000 0.000000
outer loop
vertex -0.022352 -0.007800 -0.000764
vertex -0.022600 -0.007800 0.000000
vertex -0.024600 -0.007800 -0.005000
endloop
endfacet
facet normal 0.000000 -1.000000 0.000001
outer loop
vertex -0.020248 -0.007800 -0.000764
vertex -0.012202 -0.007800 -0.001236
vertex -0.012852 -0.007800 -0.000764
endloop
endfacet
facet normal 0.000000 -1.000000 0.000000
outer loop
vertex -0.012202 -0.007800 -0.001236
vertex -0.020898 -0.007800 -0.001236
vertex -0.024600 -0.007800 -0.005000
endloop
endfacet
facet normal 0.000000 -1.000000 0.000000
outer loop
vertex -0.024600 -0.007800 0.005000
vertex -0.022600 -0.007800 0.000000
vertex -0.022352 -0.007800 0.000764
endloop
endfacet
facet normal 0.000000 -1.000000 0.000000
outer loop
vertex -0.012852 -0.007800 -0.000764
vertex -0.013100 -0.007800 0.000000
vertex -0.020000 -0.007800 0.000000
endloop
endfacet
facet normal 0.000000 -1.000000 0.000000
outer loop
vertex -0.024600 -0.007800 0.005000
vertex -0.022352 -0.007800 0.000764
vertex -0.021702 -0.007800 0.001236
endloop
endfacet
facet normal 0.000000 -1.000000 0.000000
outer loop
vertex -0.024600 -0.007800 0.005000
vertex -0.021702 -0.007800 0.001236
vertex -0.020898 -0.007800 0.001236
endloop
endfacet
facet normal 0.000000 -1.000000 0.000000
outer loop
vertex -0.021702 -0.007800 -0.001236
vertex -0.024600 -0.007800 -0.005000
vertex -0.020898 -0.007800 -0.001236
endloop
endfacet
facet normal 0.000000 -1.000000 0.000000
outer loop
vertex -0.022352 -0.007800 -0.000764
vertex -0.024600 -0.007800 -0.005000
vertex -0.021702 -0.007800 -0.001236
endloop
endfacet
facet normal 0.000000 -1.000000 0.000000
outer loop
vertex -0.020898 -0.007800 0.001236
vertex -0.020248 -0.007800 0.000764
vertex -0.012852 -0.007800 0.000764
endloop
endfacet
facet normal 0.000000 -1.000000 0.000000
outer loop
vertex -0.022600 -0.007800 0.000000
vertex -0.024600 -0.007800 0.005000
vertex -0.024600 -0.007800 -0.005000
endloop
endfacet
facet normal 0.000000 -1.000000 0.000000
outer loop
vertex -0.024600 -0.007800 0.005000
vertex -0.020898 -0.007800 0.001236
vertex -0.012202 -0.007800 0.001236
endloop
endfacet
facet normal 0.000000 -1.000000 -0.000001
outer loop
vertex -0.012202 -0.007800 -0.001236
vertex -0.020248 -0.007800 -0.000764
vertex -0.020898 -0.007800 -0.001236
endloop
endfacet
facet normal 0.000000 -1.000000 0.000000
outer loop
vertex 0.008520 -0.007800 0.002092
vertex 0.009880 -0.007800 0.002092
vertex 0.015500 -0.007800 0.005000
endloop
endfacet
facet normal 0.000000 -1.000000 0.000001
outer loop
vertex -0.020898 -0.007800 0.001236
vertex -0.012852 -0.007800 0.000764
vertex -0.012202 -0.007800 0.001236
endloop
endfacet
facet normal 0.000000 -1.000000 0.000000
outer loop
vertex -0.020000 -0.007800 0.000000
vertex -0.020248 -0.007800 -0.000764
vertex -0.012852 -0.007800 -0.000764
endloop
endfacet
facet normal -0.000000 -1.000000 0.000000
outer loop
vertex -0.006173 -0.007800 0.005000
vertex -0.006173 -0.007800 -0.005000
vertex 0.007000 -0.007800 0.000000
endloop
endfacet
facet normal 0.000000 -1.000000 0.000002
outer loop
vertex 0.009880 -0.007800 -0.002092
vertex 0.008520 -0.007800 -0.002092
vertex 0.015500 -0.007800 -0.005000
endloop
endfacet
facet normal 0.000000 -1.000000 -0.000001
outer loop
vertex 0.007420 -0.007800 0.001293
vertex -0.006173 -0.007800 0.005000
vertex 0.007000 -0.007800 0.000000
endloop
endfacet
facet normal 0.000000 -1.000000 0.000000
outer loop
vertex 0.008520 -0.007800 0.002092
vertex -0.006173 -0.007800 0.005000
vertex 0.007420 -0.007800 0.001293
endloop
endfacet
facet normal 0.000000 -1.000000 0.000000
outer loop
vertex 0.015500 -0.007800 0.005000
vertex -0.006173 -0.007800 0.005000
vertex 0.008520 -0.007800 0.002092
endloop
endfacet
facet normal 0.000000 -1.000000 -0.000001
outer loop
vertex 0.010980 -0.007800 0.001293
vertex 0.011400 -0.007800 0.000000
vertex 0.015500 -0.007800 0.005000
endloop
endfacet
facet normal 0.000000 -1.000000 0.000000
outer loop
vertex -0.020248 -0.007800 0.000764
vertex -0.013100 -0.007800 0.000000
vertex -0.012852 -0.007800 0.000764
endloop
endfacet
facet normal 0.000000 -1.000000 0.000001
outer loop
vertex 0.011400 -0.007800 0.000000
vertex 0.010980 -0.007800 -0.001293
vertex 0.015500 -0.007800 -0.005000
endloop
endfacet
facet normal 0.000000 -1.000000 -0.000001
outer loop
vertex 0.010980 -0.007800 -0.001293
vertex 0.009880 -0.007800 -0.002092
vertex 0.015500 -0.007800 -0.005000
endloop
endfacet
facet normal -0.000001 0.000000 -1.000000
outer loop
vertex 0.002425 0.003750 -0.005000
vertex 0.000781 0.004432 -0.005000
vertex 0.000000 0.007800 -0.005000
endloop
endfacet
facet normal 0.000000 -1.000000 0.000001
outer loop
vertex 0.009880 -0.007800 0.002092
vertex 0.010980 -0.007800 0.001293
vertex 0.015500 -0.007800 0.005000
endloop
endfacet
facet normal 0.000000 -1.000000 0.000000
outer loop
vertex -0.013100 -0.007800 0.000000
vertex -0.020248 -0.007800 0.000764
vertex -0.020000 -0.007800 0.000000
endloop
endfacet
facet normal 1.000000 0.000000 0.000000
outer loop
vertex 0.015500 -0.007800 0.005000
vertex 0.015500 -0.007800 -0.005000
vertex 0.015500 -0.003750 -0.005000
endloop
endfacet
facet normal 1.000000 0.000000 0.000000
outer loop
vertex 0.015500 -0.003750 0.005000
vertex 0.015500 -0.007800 0.005000
vertex 0.015500 -0.003750 -0.005000
endloop
endfacet
facet normal 0.000000 1.000000 0.000000
outer loop
vertex 0.008520 -0.003750 -0.002092
vertex 0.015500 -0.003750 -0.005000
vertex 0.002425 -0.003750 -0.005000
endloop
endfacet
facet normal 0.000000 1.000000 0.000000
outer loop
vertex 0.010980 -0.003750 -0.001293
vertex 0.015500 -0.003750 -0.005000
vertex 0.009880 -0.003750 -0.002092
endloop
endfacet
facet normal 0.000000 1.000000 0.000000
outer loop
vertex 0.002425 -0.003750 0.005000
vertex 0.007000 -0.003750 0.000000
vertex 0.002425 -0.003750 -0.005000
endloop
endfacet
facet normal 0.000000 1.000000 0.000000
outer loop
vertex 0.007420 -0.003750 -0.001293
vertex 0.008520 -0.003750 -0.002092
vertex 0.002425 -0.003750 -0.005000
endloop
endfacet
facet normal 0.000000 1.000000 0.000000
outer loop
vertex 0.010980 -0.003750 -0.001293
vertex 0.011400 -0.003750 0.000000
vertex 0.015500 -0.003750 -0.005000
endloop
endfacet
facet normal 0.000000 1.000000 0.000000
outer loop
vertex 0.007000 -0.003750 0.000000
vertex 0.007420 -0.003750 -0.001293
vertex 0.002425 -0.003750 -0.005000
endloop
endfacet
facet normal 0.000000 1.000000 -0.000000
outer loop
vertex 0.015500 -0.003750 0.005000
vertex 0.011400 -0.003750 0.000000
vertex 0.010980 -0.003750 0.001293
endloop
endfacet
facet normal 0.000000 1.000000 0.000000
outer loop
vertex 0.015500 -0.003750 0.005000
vertex 0.010980 -0.003750 0.001293
vertex 0.009880 -0.003750 0.002092
endloop
endfacet
facet normal 0.000000 1.000000 0.000000
outer loop
vertex 0.009880 -0.003750 0.002092
vertex 0.008520 -0.003750 0.002092
vertex 0.015500 -0.003750 0.005000
endloop
endfacet
facet normal 0.000000 1.000000 0.000000
outer loop
vertex 0.007420 -0.003750 0.001293
vertex 0.002425 -0.003750 0.005000
vertex 0.008520 -0.003750 0.002092
endloop
endfacet
facet normal 0.000000 1.000000 0.000000
outer loop
vertex 0.007000 -0.003750 0.000000
vertex 0.002425 -0.003750 0.005000
vertex 0.007420 -0.003750 0.001293
endloop
endfacet
facet normal 0.000000 1.000000 0.000000
outer loop
vertex 0.008520 -0.003750 0.002092
vertex 0.002425 -0.003750 0.005000
vertex 0.015500 -0.003750 0.005000
endloop
endfacet
facet normal 0.000000 1.000000 0.000000
outer loop
vertex 0.009880 -0.003750 -0.002092
vertex 0.015500 -0.003750 -0.005000
vertex 0.008520 -0.003750 -0.002092
endloop
endfacet
facet normal 0.000000 1.000000 0.000000
outer loop
vertex -0.008526 -0.003800 -0.005000
vertex -0.010748 -0.003800 -0.000764
vertex -0.010500 -0.003800 0.000000
endloop
endfacet
facet normal -0.000000 0.000000 -1.000000
outer loop
vertex 0.000781 -0.004432 -0.005000
vertex 0.002425 -0.003750 -0.005000
vertex 0.015500 -0.007800 -0.005000
endloop
endfacet
facet normal 0.000000 1.000000 0.000000
outer loop
vertex 0.011400 0.007800 0.000000
vertex 0.015500 0.007800 0.005000
vertex 0.015500 0.007800 -0.005000
endloop
endfacet
facet normal 0.000000 1.000000 0.000000
outer loop
vertex 0.000781 -0.004432 0.005000
vertex 0.000781 -0.004432 -0.005000
vertex -0.000781 -0.004432 0.005000
endloop
endfacet
facet normal 0.000000 1.000000 0.000000
outer loop
vertex -0.000781 -0.004432 0.005000
vertex 0.000781 -0.004432 -0.005000
vertex -0.000781 -0.004432 -0.005000
endloop
endfacet
facet normal 0.342020 0.939692 0.000000
outer loop
vertex -0.000781 -0.004432 0.005000
vertex -0.000781 -0.004432 -0.005000
vertex -0.002250 -0.003897 0.005000
endloop
endfacet
facet normal 0.342020 0.939692 0.000000
outer loop
vertex -0.002250 -0.003897 0.005000
vertex -0.000781 -0.004432 -0.005000
vertex -0.002250 -0.003897 -0.005000
endloop
endfacet
facet normal 0.642788 0.766044 0.000000
outer loop
vertex -0.002250 -0.003897 0.005000
vertex -0.002250 -0.003897 -0.005000
vertex -0.003447 -0.002893 0.005000
endloop
endfacet
facet normal 0.642788 0.766045 0.000000
outer loop
vertex -0.003447 -0.002893 0.005000
vertex -0.002250 -0.003897 -0.005000
vertex -0.003447 -0.002893 -0.005000
endloop
endfacet
facet normal 0.866025 0.500000 0.000000
outer loop
vertex -0.004229 -0.001539 0.005000
vertex -0.003447 -0.002893 0.005000
vertex -0.003447 -0.002893 -0.005000
endloop
endfacet
facet normal 0.866025 0.500000 0.000000
outer loop
vertex -0.004229 -0.001539 -0.005000
vertex -0.004229 -0.001539 0.005000
vertex -0.003447 -0.002893 -0.005000
endloop
endfacet
facet normal 0.984808 0.173648 0.000000
outer loop
vertex -0.004500 0.000000 0.005000
vertex -0.004229 -0.001539 0.005000
vertex -0.004229 -0.001539 -0.005000
endloop
endfacet
facet normal 0.984808 0.173648 0.000000
outer loop
vertex -0.004500 0.000000 -0.005000
vertex -0.004500 0.000000 0.005000
vertex -0.004229 -0.001539 -0.005000
endloop
endfacet
facet normal 0.984808 -0.173648 0.000000
outer loop
vertex -0.004229 0.001539 -0.005000
vertex -0.004229 0.001539 0.005000
vertex -0.004500 0.000000 0.005000
endloop
endfacet
facet normal 0.984808 -0.173648 0.000000
outer loop
vertex -0.004500 0.000000 -0.005000
vertex -0.004229 0.001539 -0.005000
vertex -0.004500 0.000000 0.005000
endloop
endfacet
facet normal 0.866025 -0.500000 0.000000
outer loop
vertex -0.003447 0.002893 -0.005000
vertex -0.003447 0.002893 0.005000
vertex -0.004229 0.001539 0.005000
endloop
endfacet
facet normal 0.866025 -0.500000 0.000000
outer loop
vertex -0.004229 0.001539 -0.005000
vertex -0.003447 0.002893 -0.005000
vertex -0.004229 0.001539 0.005000
endloop
endfacet
facet normal 0.642788 -0.766044 0.000000
outer loop
vertex -0.002250 0.003897 -0.005000
vertex -0.002250 0.003897 0.005000
vertex -0.003447 0.002893 0.005000
endloop
endfacet
facet normal 0.642788 -0.766045 0.000000
outer loop
vertex -0.003447 0.002893 -0.005000
vertex -0.002250 0.003897 -0.005000
vertex -0.003447 0.002893 0.005000
endloop
endfacet
facet normal 0.342020 -0.939692 0.000000
outer loop
vertex -0.000781 0.004432 -0.005000
vertex -0.000781 0.004432 0.005000
vertex -0.002250 0.003897 0.005000
endloop
endfacet
facet normal 0.342020 -0.939692 0.000000
outer loop
vertex -0.002250 0.003897 -0.005000
vertex -0.000781 0.004432 -0.005000
vertex -0.002250 0.003897 0.005000
endloop
endfacet
facet normal 0.000000 -1.000000 0.000000
outer loop
vertex 0.000781 0.004432 -0.005000
vertex 0.000781 0.004432 0.005000
vertex -0.000781 0.004432 0.005000
endloop
endfacet
facet normal 0.000000 -1.000000 0.000000
outer loop
vertex -0.000781 0.004432 -0.005000
vertex 0.000781 0.004432 -0.005000
vertex -0.000781 0.004432 0.005000
endloop
endfacet
facet normal -0.383022 -0.923739 0.000000
outer loop
vertex 0.002425 0.003750 -0.005000
vertex 0.000781 0.004432 0.005000
vertex 0.000781 0.004432 -0.005000
endloop
endfacet
facet normal 0.000000 -1.000000 0.000000
outer loop
vertex 0.008520 0.003750 0.002092
vertex 0.015500 0.003750 0.005000
vertex 0.002425 0.003750 0.005000
endloop
endfacet
facet normal 0.000000 -1.000000 0.000000
outer loop
vertex 0.008520 0.003750 0.002092
vertex 0.009880 0.003750 0.002092
vertex 0.015500 0.003750 0.005000
endloop
endfacet
facet normal 0.000000 -1.000000 0.000000
outer loop
vertex 0.002425 0.003750 -0.005000
vertex 0.007000 0.003750 0.000000
vertex 0.002425 0.003750 0.005000
endloop
endfacet
facet normal 0.000000 -1.000000 0.000000
outer loop
vertex 0.007420 0.003750 0.001293
vertex 0.008520 0.003750 0.002092
vertex 0.002425 0.003750 0.005000
endloop
endfacet
facet normal 0.000000 -1.000000 0.000000
outer loop
vertex 0.015500 0.003750 -0.005000
vertex 0.015500 0.003750 0.005000
vertex 0.011400 0.003750 0.000000
endloop
endfacet
facet normal 0.000000 -1.000000 0.000000
outer loop
vertex 0.010980 0.003750 0.001293
vertex 0.015500 0.003750 0.005000
vertex 0.009880 0.003750 0.002092
endloop
endfacet
facet normal 0.000000 -1.000000 0.000000
outer loop
vertex 0.008520 0.003750 -0.002092
vertex 0.002425 0.003750 -0.005000
vertex 0.015500 0.003750 -0.005000
endloop
endfacet
facet normal 0.000000 -1.000000 0.000000
outer loop
vertex 0.015500 0.003750 -0.005000
vertex 0.011400 0.003750 0.000000
vertex 0.010980 0.003750 -0.001293
endloop
endfacet
facet normal 0.000000 -1.000000 0.000000
outer loop
vertex 0.009880 0.003750 -0.002092
vertex 0.008520 0.003750 -0.002092
vertex 0.015500 0.003750 -0.005000
endloop
endfacet
facet normal 0.000000 1.000000 0.000000
outer loop
vertex 0.011400 -0.003750 0.000000
vertex 0.015500 -0.003750 0.005000
vertex 0.015500 -0.003750 -0.005000
endloop
endfacet
facet normal 0.000000 -1.000000 0.000000
outer loop
vertex 0.002425 0.003750 -0.005000
vertex 0.007420 0.003750 -0.001293
vertex 0.007000 0.003750 0.000000
endloop
endfacet
facet normal 0.000000 -1.000000 0.000000
outer loop
vertex 0.002425 0.003750 -0.005000
vertex 0.008520 0.003750 -0.002092
vertex 0.007420 0.003750 -0.001293
endloop
endfacet
facet normal 0.000000 -1.000000 0.000000
outer loop
vertex 0.007000 0.003750 0.000000
vertex 0.007420 0.003750 0.001293
vertex 0.002425 0.003750 0.005000
endloop
endfacet
facet normal 0.000000 -1.000000 0.000000
outer loop
vertex 0.010980 0.003750 -0.001293
vertex 0.009880 0.003750 -0.002092
vertex 0.015500 0.003750 -0.005000
endloop
endfacet
facet normal 1.000000 0.000000 0.000000
outer loop
vertex 0.015500 0.003750 0.005000
vertex 0.015500 0.003750 -0.005000
vertex 0.015500 0.007800 -0.005000
endloop
endfacet
facet normal 1.000000 0.000000 0.000000
outer loop
vertex 0.015500 0.007800 0.005000
vertex 0.015500 0.003750 0.005000
vertex 0.015500 0.007800 -0.005000
endloop
endfacet
facet normal 0.000000 1.000000 0.000002
outer loop
vertex 0.009880 0.007800 -0.002092
vertex 0.015500 0.007800 -0.005000
vertex 0.008520 0.007800 -0.002092
endloop
endfacet
facet normal 0.000000 1.000000 -0.000002
outer loop
vertex 0.009880 0.007800 0.002092
vertex 0.008520 0.007800 0.002092
vertex 0.015500 0.007800 0.005000
endloop
endfacet
facet normal 0.000000 1.000000 0.000000
outer loop
vertex 0.000000 0.007800 -0.005000
vertex 0.000000 0.007800 0.005000
vertex 0.007000 0.007800 0.000000
endloop
endfacet
facet normal 0.000000 1.000000 -0.000000
outer loop
vertex 0.000000 0.007800 -0.005000
vertex 0.007000 0.007800 0.000000
vertex 0.007420 0.007800 -0.001293
endloop
endfacet
facet normal 0.000000 1.000000 -0.000001
outer loop
vertex 0.000000 0.007800 -0.005000
vertex 0.007420 0.007800 -0.001293
vertex 0.008520 0.007800 -0.002092
endloop
endfacet
facet normal 0.000000 1.000000 0.000000
outer loop
vertex 0.000000 0.007800 -0.005000
vertex 0.008520 0.007800 -0.002092
vertex 0.015500 0.007800 -0.005000
endloop
endfacet
facet normal 0.000000 1.000000 -0.000001
outer loop
vertex 0.010980 0.007800 -0.001293
vertex 0.015500 0.007800 -0.005000
vertex 0.009880 0.007800 -0.002092
endloop
endfacet
facet normal 0.000000 1.000000 0.000001
outer loop
vertex 0.010980 0.007800 -0.001293
vertex 0.011400 0.007800 0.000000
vertex 0.015500 0.007800 -0.005000
endloop
endfacet
facet normal 0.000000 1.000000 0.000000
outer loop
vertex 0.008520 0.007800 0.002092
vertex 0.000000 0.007800 0.005000
vertex 0.015500 0.007800 0.005000
endloop
endfacet
facet normal 0.000000 1.000000 0.000000
outer loop
vertex 0.007420 0.007800 0.001293
vertex 0.000000 0.007800 0.005000
vertex 0.008520 0.007800 0.002092
endloop
endfacet
facet normal 0.000000 1.000000 -0.000001
outer loop
vertex 0.011400 0.007800 0.000000
vertex 0.010980 0.007800 0.001293
vertex 0.015500 0.007800 0.005000
endloop
endfacet
facet normal 0.000000 1.000000 0.000001
outer loop
vertex 0.010980 0.007800 0.001293
vertex 0.009880 0.007800 0.002092
vertex 0.015500 0.007800 0.005000
endloop
endfacet
facet normal 0.000000 1.000000 0.000000
outer loop
vertex 0.007000 0.007800 0.000000
vertex 0.000000 0.007800 0.005000
vertex 0.007420 0.007800 0.001293
endloop
endfacet
facet normal 0.000000 -1.000000 0.000000
outer loop
vertex 0.011400 -0.007800 0.000000
vertex 0.015500 -0.007800 -0.005000
vertex 0.015500 -0.007800 0.005000
endloop
endfacet
facet normal -0.156435 0.987688 0.000000
outer loop
vertex -0.002410 0.007418 -0.005000
vertex -0.002410 0.007418 0.005000
vertex 0.000000 0.007800 -0.005000
endloop
endfacet
facet normal -0.156435 0.987688 0.000000
outer loop
vertex 0.000000 0.007800 -0.005000
vertex -0.002410 0.007418 0.005000
vertex 0.000000 0.007800 0.005000
endloop
endfacet
facet normal -0.453991 0.891007 0.000000
outer loop
vertex -0.004585 0.006310 -0.005000
vertex -0.004585 0.006310 0.005000
vertex -0.002410 0.007418 -0.005000
endloop
endfacet
facet normal -0.453991 0.891006 0.000000
outer loop
vertex -0.002410 0.007418 -0.005000
vertex -0.004585 0.006310 0.005000
vertex -0.002410 0.007418 0.005000
endloop
endfacet
facet normal -0.707107 0.707107 0.000000
outer loop
vertex -0.006310 0.004585 -0.005000
vertex -0.006310 0.004585 0.005000
vertex -0.004585 0.006310 -0.005000
endloop
endfacet
facet normal -0.707107 0.707107 0.000000
outer loop
vertex -0.004585 0.006310 -0.005000
vertex -0.006310 0.004585 0.005000
vertex -0.004585 0.006310 0.005000
endloop
endfacet
facet normal -0.891006 0.453991 0.000000
outer loop
vertex -0.007418 0.002410 -0.005000
vertex -0.007418 0.002410 0.005000
vertex -0.006310 0.004585 -0.005000
endloop
endfacet
facet normal -0.891006 0.453991 0.000000
outer loop
vertex -0.006310 0.004585 -0.005000
vertex -0.007418 0.002410 0.005000
vertex -0.006310 0.004585 0.005000
endloop
endfacet
facet normal -0.987688 0.156434 0.000000
outer loop
vertex -0.007800 0.000000 -0.005000
vertex -0.007800 0.000000 0.005000
vertex -0.007418 0.002410 -0.005000
endloop
endfacet
facet normal -0.987688 0.156434 0.000000
outer loop
vertex -0.007418 0.002410 -0.005000
vertex -0.007800 0.000000 0.005000
vertex -0.007418 0.002410 0.005000
endloop
endfacet
facet normal 0.000000 1.000000 -0.000001
outer loop
vertex -0.012852 -0.003800 0.000764
vertex -0.020248 -0.003800 0.000764
vertex -0.020898 -0.003800 0.001236
endloop
endfacet
facet normal 0.000000 1.000000 0.000000
outer loop
vertex -0.024600 -0.003800 -0.005000
vertex -0.024600 -0.003800 0.005000
vertex -0.022600 -0.003800 0.000000
endloop
endfacet
facet normal 0.000000 1.000000 0.000000
outer loop
vertex -0.024600 -0.003800 -0.005000
vertex -0.022600 -0.003800 0.000000
vertex -0.022352 -0.003800 -0.000764
endloop
endfacet
facet normal 0.000000 1.000000 -0.000000
outer loop
vertex -0.024600 -0.003800 -0.005000
vertex -0.022352 -0.003800 -0.000764
vertex -0.021702 -0.003800 -0.001236
endloop
endfacet
facet normal 0.000000 1.000000 0.000000
outer loop
vertex -0.021702 -0.003800 -0.001236
vertex -0.020898 -0.003800 -0.001236
vertex -0.024600 -0.003800 -0.005000
endloop
endfacet
facet normal 0.000000 1.000000 0.000000
outer loop
vertex -0.020000 -0.003800 0.000000
vertex -0.012852 -0.003800 -0.000764
vertex -0.020248 -0.003800 -0.000764
endloop
endfacet
facet normal 0.000000 1.000000 0.000000
outer loop
vertex -0.021702 -0.003800 0.001236
vertex -0.024600 -0.003800 0.005000
vertex -0.020898 -0.003800 0.001236
endloop
endfacet
facet normal 0.000000 1.000000 0.000000
outer loop
vertex -0.012852 -0.003800 -0.000764
vertex -0.012202 -0.003800 -0.001236
vertex -0.020248 -0.003800 -0.000764
endloop
endfacet
facet normal 0.000000 1.000000 0.000000
outer loop
vertex -0.020898 -0.003800 0.001236
vertex -0.024600 -0.003800 0.005000
vertex -0.012202 -0.003800 0.001236
endloop
endfacet
facet normal 0.000000 1.000000 0.000000
outer loop
vertex -0.022352 -0.003800 0.000764
vertex -0.024600 -0.003800 0.005000
vertex -0.021702 -0.003800 0.001236
endloop
endfacet
facet normal 0.000000 1.000000 0.000000
outer loop
vertex -0.022600 -0.003800 0.000000
vertex -0.024600 -0.003800 0.005000
vertex -0.022352 -0.003800 0.000764
endloop
endfacet
facet normal 0.000000 1.000000 0.000000
outer loop
vertex -0.012852 -0.003800 -0.000764
vertex -0.020000 -0.003800 0.000000
vertex -0.013100 -0.003800 0.000000
endloop
endfacet
facet normal 0.000000 1.000000 0.000000
outer loop
vertex -0.020000 -0.003800 0.000000
vertex -0.020248 -0.003800 0.000764
vertex -0.013100 -0.003800 0.000000
endloop
endfacet
facet normal 0.000000 1.000000 0.000000
outer loop
vertex -0.012852 -0.003800 0.000764
vertex -0.020898 -0.003800 0.001236
vertex -0.012202 -0.003800 0.001236
endloop
endfacet
facet normal 0.000000 1.000000 0.000000
outer loop
vertex -0.013100 -0.003800 0.000000
vertex -0.020248 -0.003800 0.000764
vertex -0.012852 -0.003800 0.000764
endloop
endfacet
facet normal 0.000000 1.000000 0.000000
outer loop
vertex -0.020248 -0.003800 -0.000764
vertex -0.012202 -0.003800 -0.001236
vertex -0.020898 -0.003800 -0.001236
endloop
endfacet
facet normal 0.000000 0.000000 1.000000
outer loop
vertex -0.024600 -0.003800 0.005000
vertex -0.012202 -0.007800 0.005000
vertex -0.012202 -0.003800 0.005000
endloop
endfacet
facet normal 0.000000 0.000000 1.000000
outer loop
vertex -0.024600 -0.003800 0.005000
vertex -0.024600 -0.007800 0.005000
vertex -0.012202 -0.007800 0.005000
endloop
endfacet
facet normal 0.000000 -1.000000 0.000000
outer loop
vertex -0.012202 -0.007800 0.001236
vertex -0.012202 -0.007800 0.005000
vertex -0.024600 -0.007800 0.005000
endloop
endfacet
facet normal -0.383022 0.923739 0.000000
outer loop
vertex 0.000781 -0.004432 0.005000
vertex 0.002425 -0.003750 -0.005000
vertex 0.000781 -0.004432 -0.005000
endloop
endfacet
facet normal 0.000000 1.000000 0.000000
outer loop
vertex -0.012202 -0.003800 0.005000
vertex -0.012202 -0.003800 0.001236
vertex -0.024600 -0.003800 0.005000
endloop
endfacet
facet normal 0.587784 0.000000 0.809018
outer loop
vertex -0.021702 -0.007800 -0.001236
vertex -0.021702 -0.003800 -0.001236
vertex -0.022352 -0.003800 -0.000764
endloop
endfacet
facet normal 0.587784 0.000000 0.809018
outer loop
vertex -0.022352 -0.007800 -0.000764
vertex -0.021702 -0.007800 -0.001236
vertex -0.022352 -0.003800 -0.000764
endloop
endfacet
facet normal 0.951057 0.000000 0.309017
outer loop
vertex -0.022352 -0.007800 -0.000764
vertex -0.022352 -0.003800 -0.000764
vertex -0.022600 -0.003800 0.000000
endloop
endfacet
facet normal 0.951057 0.000000 0.309017
outer loop
vertex -0.022600 -0.007800 0.000000
vertex -0.022352 -0.007800 -0.000764
vertex -0.022600 -0.003800 0.000000
endloop
endfacet
facet normal 0.000000 0.000000 1.000000
outer loop
vertex -0.020898 -0.007800 -0.001236
vertex -0.020898 -0.003800 -0.001236
vertex -0.021702 -0.003800 -0.001236
endloop
endfacet
facet normal 0.000000 0.000000 1.000000
outer loop
vertex -0.021702 -0.007800 -0.001236
vertex -0.020898 -0.007800 -0.001236
vertex -0.021702 -0.003800 -0.001236
endloop
endfacet
facet normal -0.587785 0.000000 0.809017
outer loop
vertex -0.020248 -0.007800 -0.000764
vertex -0.020248 -0.003800 -0.000764
vertex -0.020898 -0.003800 -0.001236
endloop
endfacet
facet normal -0.587785 0.000000 0.809017
outer loop
vertex -0.020898 -0.007800 -0.001236
vertex -0.020248 -0.007800 -0.000764
vertex -0.020898 -0.003800 -0.001236
endloop
endfacet
facet normal -0.951057 0.000000 0.309017
outer loop
vertex -0.020000 -0.003800 0.000000
vertex -0.020248 -0.003800 -0.000764
vertex -0.020000 -0.007800 0.000000
endloop
endfacet
facet normal -0.951057 0.000000 0.309017
outer loop
vertex -0.020000 -0.007800 0.000000
vertex -0.020248 -0.003800 -0.000764
vertex -0.020248 -0.007800 -0.000764
endloop
endfacet
facet normal -0.951057 0.000000 -0.309017
outer loop
vertex -0.020000 -0.003800 0.000000
vertex -0.020000 -0.007800 0.000000
vertex -0.020248 -0.003800 0.000764
endloop
endfacet
facet normal -0.951057 0.000000 -0.309017
outer loop
vertex -0.020248 -0.003800 0.000764
vertex -0.020000 -0.007800 0.000000
vertex -0.020248 -0.007800 0.000764
endloop
endfacet
facet normal -0.587785 0.000000 -0.809017
outer loop
vertex -0.020248 -0.003800 0.000764
vertex -0.020248 -0.007800 0.000764
vertex -0.020898 -0.003800 0.001236
endloop
endfacet
facet normal -0.587785 0.000000 -0.809017
outer loop
vertex -0.020898 -0.003800 0.001236
vertex -0.020248 -0.007800 0.000764
vertex -0.020898 -0.007800 0.001236
endloop
endfacet
facet normal 0.000000 0.000000 -1.000000
outer loop
vertex -0.020898 -0.003800 0.001236
vertex -0.020898 -0.007800 0.001236
vertex -0.021702 -0.003800 0.001236
endloop
endfacet
facet normal 0.000000 0.000000 -1.000000
outer loop
vertex -0.021702 -0.003800 0.001236
vertex -0.020898 -0.007800 0.001236
vertex -0.021702 -0.007800 0.001236
endloop
endfacet
facet normal 0.587784 0.000000 -0.809018
outer loop
vertex -0.021702 -0.003800 0.001236
vertex -0.021702 -0.007800 0.001236
vertex -0.022352 -0.003800 0.000764
endloop
endfacet
facet normal 0.587784 0.000000 -0.809018
outer loop
vertex -0.022352 -0.003800 0.000764
vertex -0.021702 -0.007800 0.001236
vertex -0.022352 -0.007800 0.000764
endloop
endfacet
facet normal 0.951057 0.000000 -0.309017
outer loop
vertex -0.022600 -0.003800 0.000000
vertex -0.022352 -0.003800 0.000764
vertex -0.022352 -0.007800 0.000764
endloop
endfacet
facet normal 0.951057 0.000000 -0.309017
outer loop
vertex -0.022600 -0.007800 0.000000
vertex -0.022600 -0.003800 0.000000
vertex -0.022352 -0.007800 0.000764
endloop
endfacet
facet normal 0.951056 0.000000 0.309018
outer loop
vertex -0.012852 -0.007800 -0.000764
vertex -0.012852 -0.003800 -0.000764
vertex -0.013100 -0.003800 0.000000
endloop
endfacet
facet normal 0.951056 0.000000 0.309018
outer loop
vertex -0.013100 -0.007800 0.000000
vertex -0.012852 -0.007800 -0.000764
vertex -0.013100 -0.003800 0.000000
endloop
endfacet
facet normal 0.587785 0.000000 0.809017
outer loop
vertex -0.012202 -0.007800 -0.001236
vertex -0.012202 -0.003800 -0.001236
vertex -0.012852 -0.003800 -0.000764
endloop
endfacet
facet normal 0.587785 0.000000 0.809017
outer loop
vertex -0.012852 -0.007800 -0.000764
vertex -0.012202 -0.007800 -0.001236
vertex -0.012852 -0.003800 -0.000764
endloop
endfacet
facet normal 0.000000 0.000000 1.000000
outer loop
vertex -0.011398 -0.007800 -0.001236
vertex -0.011398 -0.003800 -0.001236
vertex -0.012202 -0.003800 -0.001236
endloop
endfacet
facet normal 0.000000 0.000000 1.000000
outer loop
vertex -0.012202 -0.007800 -0.001236
vertex -0.011398 -0.007800 -0.001236
vertex -0.012202 -0.003800 -0.001236
endloop
endfacet
facet normal -0.587784 0.000000 0.809018
outer loop
vertex -0.010748 -0.007800 -0.000764
vertex -0.010748 -0.003800 -0.000764
vertex -0.011398 -0.003800 -0.001236
endloop
endfacet
facet normal -0.587784 0.000000 0.809018
outer loop
vertex -0.011398 -0.007800 -0.001236
vertex -0.010748 -0.007800 -0.000764
vertex -0.011398 -0.003800 -0.001236
endloop
endfacet
facet normal -0.951057 0.000000 0.309017
outer loop
vertex -0.010500 -0.003800 0.000000
vertex -0.010748 -0.003800 -0.000764
vertex -0.010500 -0.007800 0.000000
endloop
endfacet
facet normal -0.951057 0.000000 0.309017
outer loop
vertex -0.010500 -0.007800 0.000000
vertex -0.010748 -0.003800 -0.000764
vertex -0.010748 -0.007800 -0.000764
endloop
endfacet
facet normal -0.951057 0.000000 -0.309017
outer loop
vertex -0.010500 -0.003800 0.000000
vertex -0.010500 -0.007800 0.000000
vertex -0.010748 -0.003800 0.000764
endloop
endfacet
facet normal -0.951057 0.000000 -0.309017
outer loop
vertex -0.010748 -0.003800 0.000764
vertex -0.010500 -0.007800 0.000000
vertex -0.010748 -0.007800 0.000764
endloop
endfacet
facet normal -0.587784 0.000000 -0.809018
outer loop
vertex -0.010748 -0.003800 0.000764
vertex -0.010748 -0.007800 0.000764
vertex -0.011398 -0.003800 0.001236
endloop
endfacet
facet normal -0.587784 0.000000 -0.809018
outer loop
vertex -0.011398 -0.003800 0.001236
vertex -0.010748 -0.007800 0.000764
vertex -0.011398 -0.007800 0.001236
endloop
endfacet
facet normal 0.000000 0.000000 -1.000000
outer loop
vertex -0.011398 -0.003800 0.001236
vertex -0.011398 -0.007800 0.001236
vertex -0.012202 -0.003800 0.001236
endloop
endfacet
facet normal 0.000000 0.000000 -1.000000
outer loop
vertex -0.012202 -0.003800 0.001236
vertex -0.011398 -0.007800 0.001236
vertex -0.012202 -0.007800 0.001236
endloop
endfacet
facet normal 0.587785 0.000000 -0.809017
outer loop
vertex -0.012202 -0.003800 0.001236
vertex -0.012202 -0.007800 0.001236
vertex -0.012852 -0.003800 0.000764
endloop
endfacet
facet normal 0.587785 0.000000 -0.809017
outer loop
vertex -0.012852 -0.003800 0.000764
vertex -0.012202 -0.007800 0.001236
vertex -0.012852 -0.007800 0.000764
endloop
endfacet
facet normal 0.951056 0.000000 -0.309018
outer loop
vertex -0.013100 -0.003800 0.000000
vertex -0.012852 -0.003800 0.000764
vertex -0.012852 -0.007800 0.000764
endloop
endfacet
facet normal 0.951056 0.000000 -0.309018
outer loop
vertex -0.013100 -0.007800 0.000000
vertex -0.013100 -0.003800 0.000000
vertex -0.012852 -0.007800 0.000764
endloop
endfacet
facet normal 0.587785 0.000000 0.809017
outer loop
vertex 0.008520 -0.007800 -0.002092
vertex 0.008520 -0.003750 -0.002092
vertex 0.007420 -0.003750 -0.001293
endloop
endfacet
facet normal 0.587785 0.000000 0.809017
outer loop
vertex 0.007420 -0.007800 -0.001293
vertex 0.008520 -0.007800 -0.002092
vertex 0.007420 -0.003750 -0.001293
endloop
endfacet
facet normal 0.951056 0.000000 0.309017
outer loop
vertex 0.007420 -0.007800 -0.001293
vertex 0.007420 -0.003750 -0.001293
vertex 0.007000 -0.003750 0.000000
endloop
endfacet
facet normal 0.951056 0.000000 0.309017
outer loop
vertex 0.007000 -0.007800 0.000000
vertex 0.007420 -0.007800 -0.001293
vertex 0.007000 -0.003750 0.000000
endloop
endfacet
facet normal 0.000000 0.000000 1.000000
outer loop
vertex 0.009880 -0.007800 -0.002092
vertex 0.009880 -0.003750 -0.002092
vertex 0.008520 -0.003750 -0.002092
endloop
endfacet
facet normal 0.000000 0.000000 1.000000
outer loop
vertex 0.008520 -0.007800 -0.002092
vertex 0.009880 -0.007800 -0.002092
vertex 0.008520 -0.003750 -0.002092
endloop
endfacet
facet normal -0.587785 0.000000 0.809017
outer loop
vertex 0.010980 -0.007800 -0.001293
vertex 0.010980 -0.003750 -0.001293
vertex 0.009880 -0.003750 -0.002092
endloop
endfacet
facet normal -0.587785 0.000000 0.809017
outer loop
vertex 0.009880 -0.007800 -0.002092
vertex 0.010980 -0.007800 -0.001293
vertex 0.009880 -0.003750 -0.002092
endloop
endfacet
facet normal -0.951057 0.000000 0.309017
outer loop
vertex 0.011400 -0.003750 0.000000
vertex 0.010980 -0.003750 -0.001293
vertex 0.011400 -0.007800 0.000000
endloop
endfacet
facet normal -0.951057 0.000000 0.309017
outer loop
vertex 0.011400 -0.007800 0.000000
vertex 0.010980 -0.003750 -0.001293
vertex 0.010980 -0.007800 -0.001293
endloop
endfacet
facet normal -0.951057 0.000000 -0.309017
outer loop
vertex 0.011400 -0.003750 0.000000
vertex 0.011400 -0.007800 0.000000
vertex 0.010980 -0.003750 0.001293
endloop
endfacet
facet normal -0.951057 0.000000 -0.309017
outer loop
vertex 0.010980 -0.003750 0.001293
vertex 0.011400 -0.007800 0.000000
vertex 0.010980 -0.007800 0.001293
endloop
endfacet
facet normal -0.587785 0.000000 -0.809017
outer loop
vertex 0.010980 -0.003750 0.001293
vertex 0.010980 -0.007800 0.001293
vertex 0.009880 -0.003750 0.002092
endloop
endfacet
facet normal -0.587785 0.000000 -0.809017
outer loop
vertex 0.009880 -0.003750 0.002092
vertex 0.010980 -0.007800 0.001293
vertex 0.009880 -0.007800 0.002092
endloop
endfacet
facet normal 0.000000 0.000000 -1.000000
outer loop
vertex 0.009880 -0.003750 0.002092
vertex 0.009880 -0.007800 0.002092
vertex 0.008520 -0.003750 0.002092
endloop
endfacet
facet normal 0.000000 0.000000 -1.000000
outer loop
vertex 0.008520 -0.003750 0.002092
vertex 0.009880 -0.007800 0.002092
vertex 0.008520 -0.007800 0.002092
endloop
endfacet
facet normal 0.587785 0.000000 -0.809017
outer loop
vertex 0.008520 -0.003750 0.002092
vertex 0.008520 -0.007800 0.002092
vertex 0.007420 -0.003750 0.001293
endloop
endfacet
facet normal 0.587785 0.000000 -0.809017
outer loop
vertex 0.007420 -0.003750 0.001293
vertex 0.008520 -0.007800 0.002092
vertex 0.007420 -0.007800 0.001293
endloop
endfacet
facet normal 0.951056 0.000000 -0.309017
outer loop
vertex 0.007000 -0.003750 0.000000
vertex 0.007420 -0.003750 0.001293
vertex 0.007420 -0.007800 0.001293
endloop
endfacet
facet normal 0.951056 0.000000 -0.309017
outer loop
vertex 0.007000 -0.007800 0.000000
vertex 0.007000 -0.003750 0.000000
vertex 0.007420 -0.007800 0.001293
endloop
endfacet
facet normal 0.951056 0.000000 0.309017
outer loop
vertex 0.007420 0.003750 -0.001293
vertex 0.007420 0.007800 -0.001293
vertex 0.007000 0.007800 0.000000
endloop
endfacet
facet normal 0.951056 0.000000 0.309017
outer loop
vertex 0.007000 0.003750 0.000000
vertex 0.007420 0.003750 -0.001293
vertex 0.007000 0.007800 0.000000
endloop
endfacet
facet normal 0.951056 0.000000 -0.309017
outer loop
vertex 0.007000 0.007800 0.000000
vertex 0.007420 0.007800 0.001293
vertex 0.007420 0.003750 0.001293
endloop
endfacet
facet normal 0.951056 0.000000 -0.309017
outer loop
vertex 0.007000 0.003750 0.000000
vertex 0.007000 0.007800 0.000000
vertex 0.007420 0.003750 0.001293
endloop
endfacet
facet normal 0.587785 0.000000 0.809017
outer loop
vertex 0.008520 0.003750 -0.002092
vertex 0.008520 0.007800 -0.002092
vertex 0.007420 0.007800 -0.001293
endloop
endfacet
facet normal 0.587785 0.000000 0.809017
outer loop
vertex 0.007420 0.003750 -0.001293
vertex 0.008520 0.003750 -0.002092
vertex 0.007420 0.007800 -0.001293
endloop
endfacet
facet normal 0.000000 0.000000 1.000000
outer loop
vertex 0.009880 0.003750 -0.002092
vertex 0.009880 0.007800 -0.002092
vertex 0.008520 0.007800 -0.002092
endloop
endfacet
facet normal 0.000000 0.000000 1.000000
outer loop
vertex 0.008520 0.003750 -0.002092
vertex 0.009880 0.003750 -0.002092
vertex 0.008520 0.007800 -0.002092
endloop
endfacet
facet normal -0.587785 0.000000 0.809017
outer loop
vertex 0.010980 0.003750 -0.001293
vertex 0.010980 0.007800 -0.001293
vertex 0.009880 0.007800 -0.002092
endloop
endfacet
facet normal -0.587785 0.000000 0.809017
outer loop
vertex 0.009880 0.003750 -0.002092
vertex 0.010980 0.003750 -0.001293
vertex 0.009880 0.007800 -0.002092
endloop
endfacet
facet normal -0.951057 0.000000 0.309017
outer loop
vertex 0.011400 0.007800 0.000000
vertex 0.010980 0.007800 -0.001293
vertex 0.011400 0.003750 0.000000
endloop
endfacet
facet normal -0.951057 0.000000 0.309017
outer loop
vertex 0.011400 0.003750 0.000000
vertex 0.010980 0.007800 -0.001293
vertex 0.010980 0.003750 -0.001293
endloop
endfacet
facet normal -0.951057 0.000000 -0.309017
outer loop
vertex 0.011400 0.007800 0.000000
vertex 0.011400 0.003750 0.000000
vertex 0.010980 0.007800 0.001293
endloop
endfacet
facet normal -0.951057 0.000000 -0.309017
outer loop
vertex 0.010980 0.007800 0.001293
vertex 0.011400 0.003750 0.000000
vertex 0.010980 0.003750 0.001293
endloop
endfacet
facet normal -0.587785 0.000000 -0.809017
outer loop
vertex 0.010980 0.007800 0.001293
vertex 0.010980 0.003750 0.001293
vertex 0.009880 0.007800 0.002092
endloop
endfacet
facet normal -0.587785 0.000000 -0.809017
outer loop
vertex 0.009880 0.007800 0.002092
vertex 0.010980 0.003750 0.001293
vertex 0.009880 0.003750 0.002092
endloop
endfacet
facet normal 0.000000 0.000000 -1.000000
outer loop
vertex 0.009880 0.007800 0.002092
vertex 0.009880 0.003750 0.002092
vertex 0.008520 0.007800 0.002092
endloop
endfacet
facet normal 0.000000 0.000000 -1.000000
outer loop
vertex 0.008520 0.007800 0.002092
vertex 0.009880 0.003750 0.002092
vertex 0.008520 0.003750 0.002092
endloop
endfacet
facet normal 0.587785 0.000000 -0.809017
outer loop
vertex 0.008520 0.007800 0.002092
vertex 0.008520 0.003750 0.002092
vertex 0.007420 0.007800 0.001293
endloop
endfacet
facet normal 0.587785 0.000000 -0.809017
outer loop
vertex 0.007420 0.007800 0.001293
vertex 0.008520 0.003750 0.002092
vertex 0.007420 0.003750 0.001293
endloop
endfacet
facet normal 0.000000 0.000000 -1.000000
outer loop
vertex -0.002250 -0.003897 -0.005000
vertex -0.006173 -0.007800 -0.005000
vertex -0.003447 -0.002893 -0.005000
endloop
endfacet
facet normal 0.000000 0.000000 -1.000000
outer loop
vertex -0.006173 -0.007800 -0.005000
vertex -0.000781 -0.004432 -0.005000
vertex 0.000781 -0.004432 -0.005000
endloop
endfacet
facet normal 0.000000 1.000000 -0.000000
outer loop
vertex -0.020898 -0.003800 -0.001236
vertex -0.012202 -0.003800 -0.001236
vertex -0.024600 -0.003800 -0.005000
endloop
endfacet
facet normal -0.000000 -1.000000 0.000001
outer loop
vertex -0.006173 -0.007800 -0.005000
vertex 0.007420 -0.007800 -0.001293
vertex 0.007000 -0.007800 0.000000
endloop
endfacet
facet normal 0.000000 -1.000000 -0.000000
outer loop
vertex 0.015500 0.003750 0.005000
vertex 0.010980 0.003750 0.001293
vertex 0.011400 0.003750 0.000000
endloop
endfacet
facet normal 0.000000 0.000000 -1.000000
outer loop
vertex -0.007800 -0.003074 -0.005000
vertex -0.007800 0.000000 -0.005000
vertex -0.004229 -0.001539 -0.005000
endloop
endfacet
facet normal -0.000000 -1.000000 -0.000000
outer loop
vertex -0.006173 -0.007800 -0.005000
vertex 0.008520 -0.007800 -0.002092
vertex 0.007420 -0.007800 -0.001293
endloop
endfacet
facet normal 0.000000 0.000000 -1.000000
outer loop
vertex -0.003447 -0.002893 -0.005000
vertex -0.007800 -0.003074 -0.005000
vertex -0.004229 -0.001539 -0.005000
endloop
endfacet
facet normal 0.000002 0.000000 -1.000000
outer loop
vertex -0.008163 -0.003703 -0.005000
vertex -0.007897 -0.003437 -0.005000
vertex -0.006173 -0.007800 -0.005000
endloop
endfacet
facet normal -0.965926 0.258818 -0.000000
outer loop
vertex -0.007800 -0.003074 -0.005000
vertex -0.007897 -0.003437 0.005000
vertex -0.007800 -0.003074 0.005000
endloop
endfacet
facet normal -0.707106 0.707107 -0.000000
outer loop
vertex -0.007897 -0.003437 -0.005000
vertex -0.008163 -0.003703 0.005000
vertex -0.007897 -0.003437 0.005000
endloop
endfacet
facet normal 0.000000 1.000000 -0.000000
outer loop
vertex -0.010748 -0.003800 0.000764
vertex -0.008526 -0.003800 0.003242
vertex -0.010500 -0.003800 0.000000
endloop
endfacet
facet normal 0.000000 0.000000 -1.000000
outer loop
vertex -0.012202 -0.007800 -0.005000
vertex -0.008526 -0.003800 -0.005000
vertex -0.008526 -0.007800 -0.005000
endloop
endfacet
facet normal -1.000000 0.000000 0.000000
outer loop
vertex -0.007800 -0.003074 0.005000
vertex -0.007800 0.000000 0.005000
vertex -0.007800 0.000000 -0.005000
endloop
endfacet
facet normal 0.000000 1.000000 0.000000
outer loop
vertex -0.011398 -0.003800 0.001236
vertex -0.012202 -0.003800 0.001236
vertex -0.012202 -0.003800 0.005000
endloop
endfacet
facet normal -0.258821 0.965925 0.000000
outer loop
vertex -0.008163 -0.003703 -0.005000
vertex -0.008526 -0.003800 -0.005000
vertex -0.008526 -0.003800 0.003242
endloop
endfacet
facet normal 0.000000 1.000000 0.000000
outer loop
vertex -0.010748 -0.003800 0.000764
vertex -0.011398 -0.003800 0.001236
vertex -0.008526 -0.003800 0.003242
endloop
endfacet
facet normal 0.000000 1.000000 0.000000
outer loop
vertex -0.008526 -0.003800 0.003242
vertex -0.008526 -0.003800 -0.005000
vertex -0.010500 -0.003800 0.000000
endloop
endfacet
facet normal 0.000000 1.000000 0.000000
outer loop
vertex -0.008526 -0.003800 -0.005000
vertex -0.012202 -0.003800 -0.005000
vertex -0.011398 -0.003800 -0.001236
endloop
endfacet
facet normal 0.000000 1.000000 0.000000
outer loop
vertex -0.012202 -0.003800 -0.005000
vertex -0.012202 -0.003800 -0.001236
vertex -0.011398 -0.003800 -0.001236
endloop
endfacet
facet normal 0.000000 1.000000 0.000000
outer loop
vertex -0.010284 -0.003800 0.005000
vertex -0.011398 -0.003800 0.001236
vertex -0.012202 -0.003800 0.005000
endloop
endfacet
facet normal 0.000000 1.000000 0.000000
outer loop
vertex -0.008526 -0.003800 -0.005000
vertex -0.011398 -0.003800 -0.001236
vertex -0.010748 -0.003800 -0.000764
endloop
endfacet
facet normal 0.000000 -1.000000 0.000000
outer loop
vertex -0.011398 -0.007800 -0.001236
vertex -0.012202 -0.007800 -0.001236
vertex -0.012202 -0.007800 -0.005000
endloop
endfacet
facet normal 0.000000 -1.000000 0.000000
outer loop
vertex -0.012202 -0.007800 -0.005000
vertex -0.008526 -0.007800 -0.005000
vertex -0.011398 -0.007800 -0.001236
endloop
endfacet
facet normal 0.000000 -1.000000 0.000000
outer loop
vertex -0.010284 -0.007800 0.005000
vertex -0.011398 -0.007800 0.001236
vertex -0.008526 -0.007800 0.003242
endloop
endfacet
facet normal 0.000000 -1.000000 0.000000
outer loop
vertex -0.010748 -0.007800 -0.000764
vertex -0.008526 -0.007800 -0.005000
vertex -0.010500 -0.007800 0.000000
endloop
endfacet
facet normal 0.000000 -1.000000 0.000000
outer loop
vertex -0.012202 -0.007800 0.005000
vertex -0.012202 -0.007800 0.001236
vertex -0.011398 -0.007800 0.001236
endloop
endfacet
facet normal 0.000000 -1.000000 0.000001
outer loop
vertex -0.010748 -0.007800 -0.000764
vertex -0.011398 -0.007800 -0.001236
vertex -0.008526 -0.007800 -0.005000
endloop
endfacet
facet normal -0.383022 -0.923739 0.000000
outer loop
vertex 0.002425 0.003750 -0.005000
vertex 0.002425 0.003750 0.005000
vertex 0.000781 0.004432 0.005000
endloop
endfacet
facet normal -0.383022 0.923739 0.000000
outer loop
vertex 0.000781 -0.004432 0.005000
vertex 0.002425 -0.003750 0.005000
vertex 0.002425 -0.003750 -0.005000
endloop
endfacet
facet normal -0.000001 0.000000 -1.000000
outer loop
vertex -0.006173 -0.007800 -0.005000
vertex -0.008526 -0.003800 -0.005000
vertex -0.008163 -0.003703 -0.005000
endloop
endfacet
facet normal 0.000000 0.000000 -1.000000
outer loop
vertex -0.007897 -0.003437 -0.005000
vertex -0.007800 -0.003074 -0.005000
vertex -0.006173 -0.007800 -0.005000
endloop
endfacet
facet normal -0.965926 0.258818 -0.000000
outer loop
vertex -0.007800 -0.003074 -0.005000
vertex -0.007897 -0.003437 -0.005000
vertex -0.007897 -0.003437 0.005000
endloop
endfacet
facet normal -0.707108 0.707106 -0.000000
outer loop
vertex -0.007897 -0.003437 -0.005000
vertex -0.008163 -0.003703 -0.005000
vertex -0.008163 -0.003703 0.005000
endloop
endfacet
facet normal 0.000000 0.000000 -1.000000
outer loop
vertex -0.012202 -0.007800 -0.005000
vertex -0.012202 -0.003800 -0.005000
vertex -0.008526 -0.003800 -0.005000
endloop
endfacet
facet normal -1.000000 0.000001 -0.000000
outer loop
vertex -0.008526 -0.007800 0.006758
vertex -0.008526 -0.003800 0.015000
vertex -0.008526 -0.003800 0.006758
endloop
endfacet
facet normal 0.000000 -1.000000 -0.000001
outer loop
vertex -0.008526 -0.007800 0.003242
vertex -0.011398 -0.007800 0.001236
vertex -0.010748 -0.007800 0.000764
endloop
endfacet
facet normal 0.000000 0.000000 -1.000000
outer loop
vertex -0.008526 -0.007800 -0.005000
vertex -0.008526 -0.003800 -0.005000
vertex -0.006173 -0.007800 -0.005000
endloop
endfacet
facet normal -0.255822 0.966724 0.000000
outer loop
vertex -0.008163 -0.003703 0.005000
vertex -0.008163 -0.003703 0.005000
vertex -0.008526 -0.003800 0.006758
endloop
endfacet
facet normal 0.000000 -1.000000 -0.000000
outer loop
vertex -0.006173 -0.007800 -0.005000
vertex -0.008526 -0.007800 0.003242
vertex -0.008526 -0.007800 -0.005000
endloop
endfacet
facet normal 0.000000 -1.000000 0.000000
outer loop
vertex -0.008526 -0.007800 -0.005000
vertex -0.008526 -0.007800 0.003242
vertex -0.010500 -0.007800 0.000000
endloop
endfacet
facet normal 0.000000 0.000000 1.000000
outer loop
vertex -0.012202 -0.003800 0.005000
vertex -0.010284 -0.007800 0.005000
vertex -0.010284 -0.003800 0.005000
endloop
endfacet
facet normal -1.000000 0.000000 0.000000
outer loop
vertex -0.007800 -0.003074 0.015000
vertex -0.007800 0.000000 0.005000
vertex -0.007800 -0.003074 0.005000
endloop
endfacet
facet normal 0.000000 -1.000000 -0.000000
outer loop
vertex 0.015500 -0.007800 0.005000
vertex 0.008520 -0.007800 0.007908
vertex -0.006173 -0.007800 0.005000
endloop
endfacet
facet normal 0.000000 -1.000000 0.000000
outer loop
vertex 0.008520 -0.007800 0.012092
vertex 0.009880 -0.007800 0.012092
vertex 0.015500 -0.007800 0.015000
endloop
endfacet
facet normal 0.000000 -1.000000 0.000000
outer loop
vertex -0.006173 -0.007800 0.015000
vertex -0.006173 -0.007800 0.005000
vertex 0.007000 -0.007800 0.010000
endloop
endfacet
facet normal 0.000000 -1.000000 0.000002
outer loop
vertex 0.009880 -0.007800 0.007908
vertex 0.008520 -0.007800 0.007908
vertex 0.015500 -0.007800 0.005000
endloop
endfacet
facet normal 0.000000 -1.000000 -0.000001
outer loop
vertex 0.007420 -0.007800 0.011293
vertex -0.006173 -0.007800 0.015000
vertex 0.007000 -0.007800 0.010000
endloop
endfacet
facet normal 0.000000 -1.000000 0.000000
outer loop
vertex 0.008520 -0.007800 0.012092
vertex -0.006173 -0.007800 0.015000
vertex 0.007420 -0.007800 0.011293
endloop
endfacet
facet normal 0.000000 -1.000000 0.000000
outer loop
vertex 0.015500 -0.007800 0.015000
vertex -0.006173 -0.007800 0.015000
vertex 0.008520 -0.007800 0.012092
endloop
endfacet
facet normal 0.000000 -1.000000 -0.000001
outer loop
vertex 0.010980 -0.007800 0.011293
vertex 0.011400 -0.007800 0.010000
vertex 0.015500 -0.007800 0.015000
endloop
endfacet
facet normal 0.000000 -1.000000 0.000001
outer loop
vertex 0.011400 -0.007800 0.010000
vertex 0.010980 -0.007800 0.008707
vertex 0.015500 -0.007800 0.005000
endloop
endfacet
facet normal 0.000000 -1.000000 -0.000001
outer loop
vertex 0.010980 -0.007800 0.008707
vertex 0.009880 -0.007800 0.007908
vertex 0.015500 -0.007800 0.005000
endloop
endfacet
facet normal 0.000000 -1.000000 0.000001
outer loop
vertex 0.009880 -0.007800 0.012092
vertex 0.010980 -0.007800 0.011293
vertex 0.015500 -0.007800 0.015000
endloop
endfacet
facet normal 1.000000 0.000000 0.000000
outer loop
vertex 0.015500 -0.007800 0.015000
vertex 0.015500 -0.007800 0.005000
vertex 0.015500 -0.003750 0.005000
endloop
endfacet
facet normal 1.000000 0.000000 0.000000
outer loop
vertex 0.015500 -0.003750 0.015000
vertex 0.015500 -0.007800 0.015000
vertex 0.015500 -0.003750 0.005000
endloop
endfacet
facet normal 0.000000 1.000000 0.000000
outer loop
vertex 0.008520 -0.003750 0.007908
vertex 0.015500 -0.003750 0.005000
vertex 0.002425 -0.003750 0.005000
endloop
endfacet
facet normal 0.000000 1.000000 0.000000
outer loop
vertex 0.010980 -0.003750 0.008707
vertex 0.015500 -0.003750 0.005000
vertex 0.009880 -0.003750 0.007908
endloop
endfacet
facet normal 0.000000 1.000000 0.000000
outer loop
vertex 0.002425 -0.003750 0.015000
vertex 0.007000 -0.003750 0.010000
vertex 0.002425 -0.003750 0.005000
endloop
endfacet
facet normal 0.000000 1.000000 0.000000
outer loop
vertex 0.007420 -0.003750 0.008707
vertex 0.008520 -0.003750 0.007908
vertex 0.002425 -0.003750 0.005000
endloop
endfacet
facet normal 0.000000 1.000000 0.000000
outer loop
vertex 0.010980 -0.003750 0.008707
vertex 0.011400 -0.003750 0.010000
vertex 0.015500 -0.003750 0.005000
endloop
endfacet
facet normal 0.000000 1.000000 0.000000
outer loop
vertex 0.007000 -0.003750 0.010000
vertex 0.007420 -0.003750 0.008707
vertex 0.002425 -0.003750 0.005000
endloop
endfacet
facet normal 0.000000 1.000000 -0.000000
outer loop
vertex 0.015500 -0.003750 0.015000
vertex 0.011400 -0.003750 0.010000
vertex 0.010980 -0.003750 0.011293
endloop
endfacet
facet normal 0.000000 1.000000 0.000000
outer loop
vertex 0.015500 -0.003750 0.015000
vertex 0.010980 -0.003750 0.011293
vertex 0.009880 -0.003750 0.012092
endloop
endfacet
facet normal 0.000000 1.000000 0.000000
outer loop
vertex 0.009880 -0.003750 0.012092
vertex 0.008520 -0.003750 0.012092
vertex 0.015500 -0.003750 0.015000
endloop
endfacet
facet normal 0.000000 1.000000 0.000000
outer loop
vertex 0.007420 -0.003750 0.011293
vertex 0.002425 -0.003750 0.015000
vertex 0.008520 -0.003750 0.012092
endloop
endfacet
facet normal 0.000000 1.000000 0.000000
outer loop
vertex 0.007000 -0.003750 0.010000
vertex 0.002425 -0.003750 0.015000
vertex 0.007420 -0.003750 0.011293
endloop
endfacet
facet normal 0.000000 1.000000 0.000000
outer loop
vertex 0.008520 -0.003750 0.012092
vertex 0.002425 -0.003750 0.015000
vertex 0.015500 -0.003750 0.015000
endloop
endfacet
facet normal 0.000000 1.000000 0.000000
outer loop
vertex 0.009880 -0.003750 0.007908
vertex 0.015500 -0.003750 0.005000
vertex 0.008520 -0.003750 0.007908
endloop
endfacet
facet normal 0.000000 1.000000 0.000000
outer loop
vertex 0.011400 0.007800 0.010000
vertex 0.015500 0.007800 0.015000
vertex 0.015500 0.007800 0.005000
endloop
endfacet
facet normal 0.000000 1.000000 0.000000
outer loop
vertex 0.000781 -0.004432 0.015000
vertex 0.000781 -0.004432 0.005000
vertex -0.000781 -0.004432 0.015000
endloop
endfacet
facet normal 0.000000 1.000000 0.000000
outer loop
vertex -0.000781 -0.004432 0.015000
vertex 0.000781 -0.004432 0.005000
vertex -0.000781 -0.004432 0.005000
endloop
endfacet
facet normal 0.342020 0.939693 0.000000
outer loop
vertex -0.000781 -0.004432 0.015000
vertex -0.000781 -0.004432 0.005000
vertex -0.002250 -0.003897 0.015000
endloop
endfacet
facet normal 0.342020 0.939692 0.000000
outer loop
vertex -0.002250 -0.003897 0.015000
vertex -0.000781 -0.004432 0.005000
vertex -0.002250 -0.003897 0.005000
endloop
endfacet
facet normal 0.642788 0.766045 0.000000
outer loop
vertex -0.002250 -0.003897 0.015000
vertex -0.002250 -0.003897 0.005000
vertex -0.003447 -0.002893 0.015000
endloop
endfacet
facet normal 0.642788 0.766044 0.000000
outer loop
vertex -0.003447 -0.002893 0.015000
vertex -0.002250 -0.003897 0.005000
vertex -0.003447 -0.002893 0.005000
endloop
endfacet
facet normal 0.866025 0.500001 0.000000
outer loop
vertex -0.004229 -0.001539 0.015000
vertex -0.003447 -0.002893 0.015000
vertex -0.003447 -0.002893 0.005000
endloop
endfacet
facet normal 0.866025 0.500000 0.000000
outer loop
vertex -0.004229 -0.001539 0.005000
vertex -0.004229 -0.001539 0.015000
vertex -0.003447 -0.002893 0.005000
endloop
endfacet
facet normal 0.984808 0.173648 0.000000
outer loop
vertex -0.004500 0.000000 0.015000
vertex -0.004229 -0.001539 0.015000
vertex -0.004229 -0.001539 0.005000
endloop
endfacet
facet normal 0.984808 0.173648 0.000000
outer loop
vertex -0.004500 0.000000 0.005000
vertex -0.004500 0.000000 0.015000
vertex -0.004229 -0.001539 0.005000
endloop
endfacet
facet normal 0.984808 -0.173648 0.000000
outer loop
vertex -0.004229 0.001539 0.005000
vertex -0.004229 0.001539 0.015000
vertex -0.004500 0.000000 0.015000
endloop
endfacet
facet normal 0.984808 -0.173648 0.000000
outer loop
vertex -0.004500 0.000000 0.005000
vertex -0.004229 0.001539 0.005000
vertex -0.004500 0.000000 0.015000
endloop
endfacet
facet normal 0.866025 -0.500001 0.000000
outer loop
vertex -0.003447 0.002893 0.005000
vertex -0.003447 0.002893 0.015000
vertex -0.004229 0.001539 0.015000
endloop
endfacet
facet normal 0.866025 -0.500000 0.000000
outer loop
vertex -0.004229 0.001539 0.005000
vertex -0.003447 0.002893 0.005000
vertex -0.004229 0.001539 0.015000
endloop
endfacet
facet normal 0.642788 -0.766045 0.000000
outer loop
vertex -0.002250 0.003897 0.005000
vertex -0.002250 0.003897 0.015000
vertex -0.003447 0.002893 0.015000
endloop
endfacet
facet normal 0.642788 -0.766044 0.000000
outer loop
vertex -0.003447 0.002893 0.005000
vertex -0.002250 0.003897 0.005000
vertex -0.003447 0.002893 0.015000
endloop
endfacet
facet normal 0.342020 -0.939693 0.000000
outer loop
vertex -0.000781 0.004432 0.005000
vertex -0.000781 0.004432 0.015000
vertex -0.002250 0.003897 0.015000
endloop
endfacet
facet normal 0.342020 -0.939692 0.000000
outer loop
vertex -0.002250 0.003897 0.005000
vertex -0.000781 0.004432 0.005000
vertex -0.002250 0.003897 0.015000
endloop
endfacet
facet normal 0.000000 -1.000000 0.000000
outer loop
vertex 0.000781 0.004432 0.005000
vertex 0.000781 0.004432 0.015000
vertex -0.000781 0.004432 0.015000
endloop
endfacet
facet normal 0.000000 -1.000000 0.000000
outer loop
vertex -0.000781 0.004432 0.005000
vertex 0.000781 0.004432 0.005000
vertex -0.000781 0.004432 0.015000
endloop
endfacet
facet normal 0.000000 0.000000 1.000000
outer loop
vertex 0.002425 0.003750 0.015000
vertex 0.015500 0.007800 0.015000
vertex 0.000000 0.007800 0.015000
endloop
endfacet
facet normal -0.383022 -0.923739 0.000000
outer loop
vertex 0.002425 0.003750 0.005000
vertex 0.000781 0.004432 0.015000
vertex 0.000781 0.004432 0.005000
endloop
endfacet
facet normal 0.000000 -1.000000 0.000000
outer loop
vertex 0.008520 0.003750 0.012092
vertex 0.015500 0.003750 0.015000
vertex 0.002425 0.003750 0.015000
endloop
endfacet
facet normal 0.000000 -1.000000 0.000000
outer loop
vertex 0.008520 0.003750 0.012092
vertex 0.009880 0.003750 0.012092
vertex 0.015500 0.003750 0.015000
endloop
endfacet
facet normal 0.000000 -1.000000 0.000000
outer loop
vertex 0.002425 0.003750 0.005000
vertex 0.007000 0.003750 0.010000
vertex 0.002425 0.003750 0.015000
endloop
endfacet
facet normal 0.000000 -1.000000 0.000000
outer loop
vertex 0.007420 0.003750 0.011293
vertex 0.008520 0.003750 0.012092
vertex 0.002425 0.003750 0.015000
endloop
endfacet
facet normal 0.000000 -1.000000 0.000000
outer loop
vertex 0.015500 0.003750 0.005000
vertex 0.015500 0.003750 0.015000
vertex 0.011400 0.003750 0.010000
endloop
endfacet
facet normal 0.000000 -1.000000 0.000000
outer loop
vertex 0.010980 0.003750 0.011293
vertex 0.015500 0.003750 0.015000
vertex 0.009880 0.003750 0.012092
endloop
endfacet
facet normal 0.000000 -1.000000 0.000000
outer loop
vertex 0.008520 0.003750 0.007908
vertex 0.002425 0.003750 0.005000
vertex 0.015500 0.003750 0.005000
endloop
endfacet
facet normal 0.000000 -1.000000 0.000000
outer loop
vertex 0.015500 0.003750 0.005000
vertex 0.011400 0.003750 0.010000
vertex 0.010980 0.003750 0.008707
endloop
endfacet
facet normal 0.000000 -1.000000 0.000000
outer loop
vertex 0.009880 0.003750 0.007908
vertex 0.008520 0.003750 0.007908
vertex 0.015500 0.003750 0.005000
endloop
endfacet
facet normal 0.000000 1.000000 0.000000
outer loop
vertex 0.011400 -0.003750 0.010000
vertex 0.015500 -0.003750 0.015000
vertex 0.015500 -0.003750 0.005000
endloop
endfacet
facet normal 0.000000 -1.000000 0.000000
outer loop
vertex 0.002425 0.003750 0.005000
vertex 0.007420 0.003750 0.008707
vertex 0.007000 0.003750 0.010000
endloop
endfacet
facet normal 0.000000 -1.000000 0.000000
outer loop
vertex 0.002425 0.003750 0.005000
vertex 0.008520 0.003750 0.007908
vertex 0.007420 0.003750 0.008707
endloop
endfacet
facet normal 0.000000 -1.000000 0.000000
outer loop
vertex 0.007000 0.003750 0.010000
vertex 0.007420 0.003750 0.011293
vertex 0.002425 0.003750 0.015000
endloop
endfacet
facet normal 0.000000 -1.000000 0.000000
outer loop
vertex 0.010980 0.003750 0.008707
vertex 0.009880 0.003750 0.007908
vertex 0.015500 0.003750 0.005000
endloop
endfacet
facet normal 1.000000 0.000000 0.000000
outer loop
vertex 0.015500 0.003750 0.015000
vertex 0.015500 0.003750 0.005000
vertex 0.015500 0.007800 0.005000
endloop
endfacet
facet normal 1.000000 0.000000 0.000000
outer loop
vertex 0.015500 0.007800 0.015000
vertex 0.015500 0.003750 0.015000
vertex 0.015500 0.007800 0.005000
endloop
endfacet
facet normal 0.000000 1.000000 0.000002
outer loop
vertex 0.009880 0.007800 0.007908
vertex 0.015500 0.007800 0.005000
vertex 0.008520 0.007800 0.007908
endloop
endfacet
facet normal 0.000000 1.000000 -0.000002
outer loop
vertex 0.009880 0.007800 0.012092
vertex 0.008520 0.007800 0.012092
vertex 0.015500 0.007800 0.015000
endloop
endfacet
facet normal 0.000000 1.000000 0.000000
outer loop
vertex 0.000000 0.007800 0.005000
vertex 0.000000 0.007800 0.015000
vertex 0.007000 0.007800 0.010000
endloop
endfacet
facet normal 0.000000 1.000000 -0.000000
outer loop
vertex 0.000000 0.007800 0.005000
vertex 0.007000 0.007800 0.010000
vertex 0.007420 0.007800 0.008707
endloop
endfacet
facet normal 0.000000 1.000000 -0.000001
outer loop
vertex 0.000000 0.007800 0.005000
vertex 0.007420 0.007800 0.008707
vertex 0.008520 0.007800 0.007908
endloop
endfacet
facet normal 0.000000 1.000000 0.000000
outer loop
vertex 0.000000 0.007800 0.005000
vertex 0.008520 0.007800 0.007908
vertex 0.015500 0.007800 0.005000
endloop
endfacet
facet normal 0.000000 1.000000 -0.000001
outer loop
vertex 0.010980 0.007800 0.008707
vertex 0.015500 0.007800 0.005000
vertex 0.009880 0.007800 0.007908
endloop
endfacet
facet normal 0.000000 1.000000 0.000001
outer loop
vertex 0.010980 0.007800 0.008707
vertex 0.011400 0.007800 0.010000
vertex 0.015500 0.007800 0.005000
endloop
endfacet
facet normal 0.000000 1.000000 0.000000
outer loop
vertex 0.008520 0.007800 0.012092
vertex 0.000000 0.007800 0.015000
vertex 0.015500 0.007800 0.015000
endloop
endfacet
facet normal 0.000000 1.000000 0.000000
outer loop
vertex 0.007420 0.007800 0.011293
vertex 0.000000 0.007800 0.015000
vertex 0.008520 0.007800 0.012092
endloop
endfacet
facet normal 0.000000 1.000000 -0.000001
outer loop
vertex 0.011400 0.007800 0.010000
vertex 0.010980 0.007800 0.011293
vertex 0.015500 0.007800 0.015000
endloop
endfacet
facet normal 0.000000 1.000000 0.000001
outer loop
vertex 0.010980 0.007800 0.011293
vertex 0.009880 0.007800 0.012092
vertex 0.015500 0.007800 0.015000
endloop
endfacet
facet normal 0.000000 1.000000 0.000000
outer loop
vertex 0.007000 0.007800 0.010000
vertex 0.000000 0.007800 0.015000
vertex 0.007420 0.007800 0.011293
endloop
endfacet
facet normal 0.000000 -1.000000 0.000000
outer loop
vertex 0.011400 -0.007800 0.010000
vertex 0.015500 -0.007800 0.005000
vertex 0.015500 -0.007800 0.015000
endloop
endfacet
facet normal -0.156435 0.987688 0.000000
outer loop
vertex -0.002410 0.007418 0.005000
vertex -0.002410 0.007418 0.015000
vertex 0.000000 0.007800 0.005000
endloop
endfacet
facet normal -0.156434 0.987688 0.000000
outer loop
vertex 0.000000 0.007800 0.005000
vertex -0.002410 0.007418 0.015000
vertex 0.000000 0.007800 0.015000
endloop
endfacet
facet normal -0.453991 0.891006 0.000000
outer loop
vertex -0.004585 0.006310 0.005000
vertex -0.004585 0.006310 0.015000
vertex -0.002410 0.007418 0.005000
endloop
endfacet
facet normal -0.453991 0.891007 0.000000
outer loop
vertex -0.002410 0.007418 0.005000
vertex -0.004585 0.006310 0.015000
vertex -0.002410 0.007418 0.015000
endloop
endfacet
facet normal -0.707107 0.707107 0.000000
outer loop
vertex -0.006310 0.004585 0.005000
vertex -0.006310 0.004585 0.015000
vertex -0.004585 0.006310 0.005000
endloop
endfacet
facet normal -0.707107 0.707107 0.000000
outer loop
vertex -0.004585 0.006310 0.005000
vertex -0.006310 0.004585 0.015000
vertex -0.004585 0.006310 0.015000
endloop
endfacet
facet normal -0.891006 0.453991 0.000000
outer loop
vertex -0.007418 0.002410 0.005000
vertex -0.007418 0.002410 0.015000
vertex -0.006310 0.004585 0.005000
endloop
endfacet
facet normal -0.891006 0.453991 0.000000
outer loop
vertex -0.006310 0.004585 0.005000
vertex -0.007418 0.002410 0.015000
vertex -0.006310 0.004585 0.015000
endloop
endfacet
facet normal -0.987688 0.156434 0.000000
outer loop
vertex -0.007800 0.000000 0.005000
vertex -0.007800 0.000000 0.015000
vertex -0.007418 0.002410 0.005000
endloop
endfacet
facet normal -0.987688 0.156434 0.000000
outer loop
vertex -0.007418 0.002410 0.005000
vertex -0.007800 0.000000 0.015000
vertex -0.007418 0.002410 0.015000
endloop
endfacet
facet normal -0.000001 0.000000 1.000000
outer loop
vertex -0.004229 -0.001539 0.015000
vertex -0.007800 0.000000 0.015000
vertex -0.007800 -0.003074 0.015000
endloop
endfacet
facet normal 0.000000 0.000000 1.000000
outer loop
vertex -0.006173 -0.007800 0.015000
vertex 0.015500 -0.007800 0.015000
vertex 0.000781 -0.004432 0.015000
endloop
endfacet
facet normal 0.000000 0.000000 1.000000
outer loop
vertex 0.002425 -0.003750 0.015000
vertex 0.015500 -0.007800 0.015000
vertex 0.015500 -0.003750 0.015000
endloop
endfacet
facet normal 0.000001 0.000000 1.000000
outer loop
vertex -0.003447 0.002893 0.015000
vertex -0.006310 0.004585 0.015000
vertex -0.004229 0.001539 0.015000
endloop
endfacet
facet normal 0.000000 0.000000 1.000000
outer loop
vertex -0.000781 -0.004432 0.015000
vertex -0.006173 -0.007800 0.015000
vertex 0.000781 -0.004432 0.015000
endloop
endfacet
facet normal 0.000000 0.000000 1.000000
outer loop
vertex -0.007800 0.000000 0.015000
vertex -0.004500 0.000000 0.015000
vertex -0.007418 0.002410 0.015000
endloop
endfacet
facet normal 0.000000 0.000000 1.000000
outer loop
vertex -0.007800 0.000000 0.015000
vertex -0.004229 -0.001539 0.015000
vertex -0.004500 0.000000 0.015000
endloop
endfacet
facet normal 0.000000 0.000000 1.000000
outer loop
vertex 0.000781 0.004432 0.015000
vertex 0.002425 0.003750 0.015000
vertex 0.000000 0.007800 0.015000
endloop
endfacet
facet normal 0.000000 0.000000 1.000000
outer loop
vertex 0.000000 0.007800 0.015000
vertex -0.000781 0.004432 0.015000
vertex 0.000781 0.004432 0.015000
endloop
endfacet
facet normal 0.000000 0.000000 1.000000
outer loop
vertex -0.006310 0.004585 0.015000
vertex -0.003447 0.002893 0.015000
vertex -0.004585 0.006310 0.015000
endloop
endfacet
facet normal 0.000001 0.000000 1.000000
outer loop
vertex -0.002250 0.003897 0.015000
vertex -0.000781 0.004432 0.015000
vertex -0.002410 0.007418 0.015000
endloop
endfacet
facet normal 0.000000 0.000000 1.000000
outer loop
vertex -0.003447 -0.002893 0.015000
vertex -0.004229 -0.001539 0.015000
vertex -0.007800 -0.003074 0.015000
endloop
endfacet
facet normal -0.000001 0.000000 1.000000
outer loop
vertex -0.004500 0.000000 0.015000
vertex -0.004229 0.001539 0.015000
vertex -0.007418 0.002410 0.015000
endloop
endfacet
facet normal 0.000000 0.000000 1.000000
outer loop
vertex -0.004585 0.006310 0.015000
vertex -0.002250 0.003897 0.015000
vertex -0.002410 0.007418 0.015000
endloop
endfacet
facet normal -0.000001 0.000000 1.000000
outer loop
vertex -0.000781 0.004432 0.015000
vertex 0.000000 0.007800 0.015000
vertex -0.002410 0.007418 0.015000
endloop
endfacet
facet normal 0.000000 0.000000 1.000000
outer loop
vertex -0.003447 0.002893 0.015000
vertex -0.002250 0.003897 0.015000
vertex -0.004585 0.006310 0.015000
endloop
endfacet
facet normal 0.000000 0.000000 1.000000
outer loop
vertex -0.007800 -0.003074 0.015000
vertex -0.006173 -0.007800 0.015000
vertex -0.003447 -0.002893 0.015000
endloop
endfacet
facet normal 0.000000 0.000000 1.000000
outer loop
vertex 0.002425 0.003750 0.015000
vertex 0.015500 0.003750 0.015000
vertex 0.015500 0.007800 0.015000
endloop
endfacet
facet normal 0.000000 0.000000 1.000000
outer loop
vertex -0.006310 0.004585 0.015000
vertex -0.007418 0.002410 0.015000
vertex -0.004229 0.001539 0.015000
endloop
endfacet
facet normal -0.383022 0.923739 0.000000
outer loop
vertex 0.000781 -0.004432 0.015000
vertex 0.002425 -0.003750 0.005000
vertex 0.000781 -0.004432 0.005000
endloop
endfacet
facet normal 0.587784 0.000000 0.809018
outer loop
vertex 0.008520 -0.007800 0.007908
vertex 0.008520 -0.003750 0.007908
vertex 0.007420 -0.003750 0.008707
endloop
endfacet
facet normal 0.587784 0.000000 0.809018
outer loop
vertex 0.007420 -0.007800 0.008707
vertex 0.008520 -0.007800 0.007908
vertex 0.007420 -0.003750 0.008707
endloop
endfacet
facet normal 0.951056 0.000000 0.309017
outer loop
vertex 0.007420 -0.007800 0.008707
vertex 0.007420 -0.003750 0.008707
vertex 0.007000 -0.003750 0.010000
endloop
endfacet
facet normal 0.951056 0.000000 0.309017
outer loop
vertex 0.007000 -0.007800 0.010000
vertex 0.007420 -0.007800 0.008707
vertex 0.007000 -0.003750 0.010000
endloop
endfacet
facet normal 0.000000 0.000000 1.000000
outer loop
vertex 0.009880 -0.007800 0.007908
vertex 0.009880 -0.003750 0.007908
vertex 0.008520 -0.003750 0.007908
endloop
endfacet
facet normal 0.000000 0.000000 1.000000
outer loop
vertex 0.008520 -0.007800 0.007908
vertex 0.009880 -0.007800 0.007908
vertex 0.008520 -0.003750 0.007908
endloop
endfacet
facet normal -0.587784 0.000000 0.809018
outer loop
vertex 0.010980 -0.007800 0.008707
vertex 0.010980 -0.003750 0.008707
vertex 0.009880 -0.003750 0.007908
endloop
endfacet
facet normal -0.587783 0.000000 0.809018
outer loop
vertex 0.009880 -0.007800 0.007908
vertex 0.010980 -0.007800 0.008707
vertex 0.009880 -0.003750 0.007908
endloop
endfacet
facet normal -0.951057 0.000000 0.309016
outer loop
vertex 0.011400 -0.003750 0.010000
vertex 0.010980 -0.003750 0.008707
vertex 0.011400 -0.007800 0.010000
endloop
endfacet
facet normal -0.951057 0.000000 0.309016
outer loop
vertex 0.011400 -0.007800 0.010000
vertex 0.010980 -0.003750 0.008707
vertex 0.010980 -0.007800 0.008707
endloop
endfacet
facet normal -0.951057 0.000000 -0.309017
outer loop
vertex 0.011400 -0.003750 0.010000
vertex 0.011400 -0.007800 0.010000
vertex 0.010980 -0.003750 0.011293
endloop
endfacet
facet normal -0.951057 0.000000 -0.309017
outer loop
vertex 0.010980 -0.003750 0.011293
vertex 0.011400 -0.007800 0.010000
vertex 0.010980 -0.007800 0.011293
endloop
endfacet
facet normal -0.587785 0.000000 -0.809017
outer loop
vertex 0.010980 -0.003750 0.011293
vertex 0.010980 -0.007800 0.011293
vertex 0.009880 -0.003750 0.012092
endloop
endfacet
facet normal -0.587783 0.000000 -0.809018
outer loop
vertex 0.009880 -0.003750 0.012092
vertex 0.010980 -0.007800 0.011293
vertex 0.009880 -0.007800 0.012092
endloop
endfacet
facet normal 0.000000 0.000000 -1.000000
outer loop
vertex 0.009880 -0.003750 0.012092
vertex 0.009880 -0.007800 0.012092
vertex 0.008520 -0.003750 0.012092
endloop
endfacet
facet normal 0.000000 0.000000 -1.000000
outer loop
vertex 0.008520 -0.003750 0.012092
vertex 0.009880 -0.007800 0.012092
vertex 0.008520 -0.007800 0.012092
endloop
endfacet
facet normal 0.587784 0.000000 -0.809018
outer loop
vertex 0.008520 -0.003750 0.012092
vertex 0.008520 -0.007800 0.012092
vertex 0.007420 -0.003750 0.011293
endloop
endfacet
facet normal 0.587785 0.000000 -0.809017
outer loop
vertex 0.007420 -0.003750 0.011293
vertex 0.008520 -0.007800 0.012092
vertex 0.007420 -0.007800 0.011293
endloop
endfacet
facet normal 0.951056 0.000000 -0.309017
outer loop
vertex 0.007000 -0.003750 0.010000
vertex 0.007420 -0.003750 0.011293
vertex 0.007420 -0.007800 0.011293
endloop
endfacet
facet normal 0.951056 0.000000 -0.309017
outer loop
vertex 0.007000 -0.007800 0.010000
vertex 0.007000 -0.003750 0.010000
vertex 0.007420 -0.007800 0.011293
endloop
endfacet
facet normal 0.951056 0.000000 0.309017
outer loop
vertex 0.007420 0.003750 0.008707
vertex 0.007420 0.007800 0.008707
vertex 0.007000 0.007800 0.010000
endloop
endfacet
facet normal 0.951056 0.000000 0.309017
outer loop
vertex 0.007000 0.003750 0.010000
vertex 0.007420 0.003750 0.008707
vertex 0.007000 0.007800 0.010000
endloop
endfacet
facet normal 0.951056 0.000000 -0.309017
outer loop
vertex 0.007000 0.007800 0.010000
vertex 0.007420 0.007800 0.011293
vertex 0.007420 0.003750 0.011293
endloop
endfacet
facet normal 0.951056 0.000000 -0.309017
outer loop
vertex 0.007000 0.003750 0.010000
vertex 0.007000 0.007800 0.010000
vertex 0.007420 0.003750 0.011293
endloop
endfacet
facet normal 0.587784 0.000000 0.809018
outer loop
vertex 0.008520 0.003750 0.007908
vertex 0.008520 0.007800 0.007908
vertex 0.007420 0.007800 0.008707
endloop
endfacet
facet normal 0.587785 0.000000 0.809017
outer loop
vertex 0.007420 0.003750 0.008707
vertex 0.008520 0.003750 0.007908
vertex 0.007420 0.007800 0.008707
endloop
endfacet
facet normal 0.000000 0.000000 1.000000
outer loop
vertex 0.009880 0.003750 0.007908
vertex 0.009880 0.007800 0.007908
vertex 0.008520 0.007800 0.007908
endloop
endfacet
facet normal 0.000000 0.000000 1.000000
outer loop
vertex 0.008520 0.003750 0.007908
vertex 0.009880 0.003750 0.007908
vertex 0.008520 0.007800 0.007908
endloop
endfacet
facet normal -0.587784 0.000000 0.809018
outer loop
vertex 0.010980 0.003750 0.008707
vertex 0.010980 0.007800 0.008707
vertex 0.009880 0.007800 0.007908
endloop
endfacet
facet normal -0.587783 0.000000 0.809018
outer loop
vertex 0.009880 0.003750 0.007908
vertex 0.010980 0.003750 0.008707
vertex 0.009880 0.007800 0.007908
endloop
endfacet
facet normal -0.951057 0.000000 0.309016
outer loop
vertex 0.011400 0.007800 0.010000
vertex 0.010980 0.007800 0.008707
vertex 0.011400 0.003750 0.010000
endloop
endfacet
facet normal -0.951057 0.000000 0.309016
outer loop
vertex 0.011400 0.003750 0.010000
vertex 0.010980 0.007800 0.008707
vertex 0.010980 0.003750 0.008707
endloop
endfacet
facet normal -0.951057 0.000000 -0.309017
outer loop
vertex 0.011400 0.007800 0.010000
vertex 0.011400 0.003750 0.010000
vertex 0.010980 0.007800 0.011293
endloop
endfacet
facet normal -0.951057 0.000000 -0.309017
outer loop
vertex 0.010980 0.007800 0.011293
vertex 0.011400 0.003750 0.010000
vertex 0.010980 0.003750 0.011293
endloop
endfacet
facet normal -0.587785 0.000000 -0.809017
outer loop
vertex 0.010980 0.007800 0.011293
vertex 0.010980 0.003750 0.011293
vertex 0.009880 0.007800 0.012092
endloop
endfacet
facet normal -0.587783 0.000000 -0.809018
outer loop
vertex 0.009880 0.007800 0.012092
vertex 0.010980 0.003750 0.011293
vertex 0.009880 0.003750 0.012092
endloop
endfacet
facet normal 0.000000 0.000000 -1.000000
outer loop
vertex 0.009880 0.007800 0.012092
vertex 0.009880 0.003750 0.012092
vertex 0.008520 0.007800 0.012092
endloop
endfacet
facet normal 0.000000 0.000000 -1.000000
outer loop
vertex 0.008520 0.007800 0.012092
vertex 0.009880 0.003750 0.012092
vertex 0.008520 0.003750 0.012092
endloop
endfacet
facet normal 0.587784 0.000000 -0.809018
outer loop
vertex 0.008520 0.007800 0.012092
vertex 0.008520 0.003750 0.012092
vertex 0.007420 0.007800 0.011293
endloop
endfacet
facet normal 0.587785 0.000000 -0.809017
outer loop
vertex 0.007420 0.007800 0.011293
vertex 0.008520 0.003750 0.012092
vertex 0.007420 0.003750 0.011293
endloop
endfacet
facet normal 0.000000 -1.000000 0.000001
outer loop
vertex -0.006173 -0.007800 0.005000
vertex 0.007420 -0.007800 0.008707
vertex 0.007000 -0.007800 0.010000
endloop
endfacet
facet normal 0.000000 0.000000 1.000000
outer loop
vertex -0.006173 -0.007800 0.015000
vertex -0.000781 -0.004432 0.015000
vertex -0.002250 -0.003897 0.015000
endloop
endfacet
facet normal 0.000000 -1.000000 -0.000000
outer loop
vertex 0.015500 0.003750 0.015000
vertex 0.010980 0.003750 0.011293
vertex 0.011400 0.003750 0.010000
endloop
endfacet
facet normal -0.000001 0.000000 1.000000
outer loop
vertex -0.006173 -0.007800 0.015000
vertex -0.002250 -0.003897 0.015000
vertex -0.003447 -0.002893 0.015000
endloop
endfacet
facet normal 0.000000 0.000000 1.000000
outer loop
vertex 0.002425 -0.003750 0.015000
vertex 0.000781 -0.004432 0.015000
vertex 0.015500 -0.007800 0.015000
endloop
endfacet
facet normal 0.000000 -1.000000 -0.000000
outer loop
vertex -0.006173 -0.007800 0.005000
vertex 0.008520 -0.007800 0.007908
vertex 0.007420 -0.007800 0.008707
endloop
endfacet
facet normal -0.965926 0.258818 0.000000
outer loop
vertex -0.007800 -0.003074 0.005000
vertex -0.007897 -0.003437 0.015000
vertex -0.007800 -0.003074 0.015000
endloop
endfacet
facet normal -0.707106 0.707107 0.000000
outer loop
vertex -0.007897 -0.003437 0.005000
vertex -0.008163 -0.003703 0.015000
vertex -0.007897 -0.003437 0.015000
endloop
endfacet
facet normal 0.000000 0.000000 1.000000
outer loop
vertex -0.008163 -0.003703 0.015000
vertex -0.008526 -0.007800 0.015000
vertex -0.006173 -0.007800 0.015000
endloop
endfacet
facet normal -0.000009 0.000000 1.000000
outer loop
vertex -0.007897 -0.003437 0.015000
vertex -0.008163 -0.003703 0.015000
vertex -0.006173 -0.007800 0.015000
endloop
endfacet
facet normal -1.000000 0.000000 0.000000
outer loop
vertex -0.007800 -0.003074 0.015000
vertex -0.007800 0.000000 0.015000
vertex -0.007800 0.000000 0.005000
endloop
endfacet
facet normal 0.000000 -1.000000 0.000000
outer loop
vertex -0.008526 -0.007800 0.003242
vertex -0.010748 -0.007800 0.000764
vertex -0.010500 -0.007800 0.000000
endloop
endfacet
facet normal -0.383022 -0.923739 0.000000
outer loop
vertex 0.002425 0.003750 0.005000
vertex 0.002425 0.003750 0.015000
vertex 0.000781 0.004432 0.015000
endloop
endfacet
facet normal -0.383022 0.923739 0.000000
outer loop
vertex 0.000781 -0.004432 0.015000
vertex 0.002425 -0.003750 0.015000
vertex 0.002425 -0.003750 0.005000
endloop
endfacet
facet normal -0.965926 0.258818 0.000000
outer loop
vertex -0.007800 -0.003074 0.005000
vertex -0.007897 -0.003437 0.005000
vertex -0.007897 -0.003437 0.015000
endloop
endfacet
facet normal -0.707106 0.707107 0.000000
outer loop
vertex -0.007897 -0.003437 0.005000
vertex -0.008163 -0.003703 0.005000
vertex -0.008163 -0.003703 0.015000
endloop
endfacet
facet normal 0.000025 0.000000 1.000000
outer loop
vertex -0.006173 -0.007800 0.015000
vertex -0.007800 -0.003074 0.015000
vertex -0.007897 -0.003437 0.015000
endloop
endfacet
facet normal 0.000000 -1.000000 0.000000
outer loop
vertex -0.009041 -0.007800 0.005515
vertex -0.009612 -0.007800 0.005134
vertex -0.008526 -0.007800 0.003242
endloop
endfacet
facet normal -0.079240 0.995449 0.052946
outer loop
vertex -0.008660 -0.003800 0.006085
vertex -0.008163 -0.003703 0.005000
vertex -0.009041 -0.003800 0.005515
endloop
endfacet
facet normal -0.195091 0.000000 0.980785
outer loop
vertex -0.010284 -0.007800 0.005000
vertex -0.009612 -0.003800 0.005134
vertex -0.010284 -0.003800 0.005000
endloop
endfacet
facet normal -0.555571 0.000000 0.831469
outer loop
vertex -0.009612 -0.003800 0.005134
vertex -0.009041 -0.007800 0.005515
vertex -0.009041 -0.003800 0.005515
endloop
endfacet
facet normal -0.831470 0.000001 0.555570
outer loop
vertex -0.009041 -0.003800 0.005515
vertex -0.008660 -0.007800 0.006085
vertex -0.008660 -0.003800 0.006085
endloop
endfacet
facet normal -0.980785 0.000000 0.195091
outer loop
vertex -0.008660 -0.007800 0.006085
vertex -0.008526 -0.003800 0.006758
vertex -0.008660 -0.003800 0.006085
endloop
endfacet
facet normal 0.000000 -1.000000 0.000000
outer loop
vertex -0.006173 -0.007800 0.015000
vertex -0.008526 -0.007800 0.015000
vertex -0.008526 -0.007800 0.006758
endloop
endfacet
facet normal 0.000000 -1.000000 -0.000000
outer loop
vertex -0.010284 -0.007800 0.005000
vertex -0.012202 -0.007800 0.005000
vertex -0.011398 -0.007800 0.001236
endloop
endfacet
facet normal 0.000000 1.000000 0.000000
outer loop
vertex -0.010284 -0.003800 0.005000
vertex -0.008526 -0.003800 0.003242
vertex -0.011398 -0.003800 0.001236
endloop
endfacet
facet normal -0.254500 0.967073 0.000760
outer loop
vertex -0.008526 -0.003800 0.003242
vertex -0.008163 -0.003703 0.005000
vertex -0.008163 -0.003703 0.005000
endloop
endfacet
facet normal -1.000000 0.000000 0.000000
outer loop
vertex -0.008526 -0.007800 0.006758
vertex -0.008526 -0.007800 0.015000
vertex -0.008526 -0.003800 0.015000
endloop
endfacet
facet normal -0.258819 0.965926 0.000000
outer loop
vertex -0.008526 -0.003800 0.006758
vertex -0.008526 -0.003800 0.015000
vertex -0.008163 -0.003703 0.015000
endloop
endfacet
facet normal -0.258821 0.965925 0.000000
outer loop
vertex -0.008163 -0.003703 0.015000
vertex -0.008163 -0.003703 0.005000
vertex -0.008526 -0.003800 0.006758
endloop
endfacet
facet normal 0.000000 -1.000000 0.000000
outer loop
vertex -0.006173 -0.007800 -0.005000
vertex -0.006173 -0.007800 0.005000
vertex -0.008526 -0.007800 0.003242
endloop
endfacet
facet normal 0.000000 0.000000 1.000000
outer loop
vertex -0.012202 -0.003800 0.005000
vertex -0.012202 -0.007800 0.005000
vertex -0.010284 -0.007800 0.005000
endloop
endfacet
facet normal 0.000005 0.000000 1.000000
outer loop
vertex -0.008163 -0.003703 0.015000
vertex -0.008526 -0.003800 0.015000
vertex -0.008526 -0.007800 0.015000
endloop
endfacet
facet normal 0.000000 -1.000000 0.000000
outer loop
vertex -0.008526 -0.007800 0.003242
vertex -0.008526 -0.007800 0.006758
vertex -0.008660 -0.007800 0.006085
endloop
endfacet
facet normal 0.000000 -1.000000 0.000000
outer loop
vertex -0.008526 -0.007800 0.003242
vertex -0.008660 -0.007800 0.006085
vertex -0.009041 -0.007800 0.005515
endloop
endfacet
facet normal 0.000000 -1.000000 0.000000
outer loop
vertex -0.009612 -0.007800 0.005134
vertex -0.010284 -0.007800 0.005000
vertex -0.008526 -0.007800 0.003242
endloop
endfacet
facet normal 0.000000 1.000000 0.000000
outer loop
vertex -0.008526 -0.003800 0.003242
vertex -0.010284 -0.003800 0.005000
vertex -0.009612 -0.003800 0.005134
endloop
endfacet
facet normal -0.070688 0.996674 -0.040550
outer loop
vertex -0.008526 -0.003800 0.003242
vertex -0.009612 -0.003800 0.005134
vertex -0.008163 -0.003703 0.005000
endloop
endfacet
facet normal -0.058675 0.994407 0.087813
outer loop
vertex -0.009612 -0.003800 0.005134
vertex -0.009041 -0.003800 0.005515
vertex -0.008163 -0.003703 0.005000
endloop
endfacet
facet normal -0.135179 0.990456 0.026889
outer loop
vertex -0.008526 -0.003800 0.006758
vertex -0.008163 -0.003703 0.005000
vertex -0.008660 -0.003800 0.006085
endloop
endfacet
facet normal -0.195089 0.000000 0.980785
outer loop
vertex -0.010284 -0.007800 0.005000
vertex -0.009612 -0.007800 0.005134
vertex -0.009612 -0.003800 0.005134
endloop
endfacet
facet normal -0.555570 0.000000 0.831470
outer loop
vertex -0.009612 -0.003800 0.005134
vertex -0.009612 -0.007800 0.005134
vertex -0.009041 -0.007800 0.005515
endloop
endfacet
facet normal -0.831469 0.000001 0.555571
outer loop
vertex -0.009041 -0.003800 0.005515
vertex -0.009041 -0.007800 0.005515
vertex -0.008660 -0.007800 0.006085
endloop
endfacet
facet normal -0.980785 0.000001 0.195091
outer loop
vertex -0.008660 -0.007800 0.006085
vertex -0.008526 -0.007800 0.006758
vertex -0.008526 -0.003800 0.006758
endloop
endfacet
facet normal 0.000000 -1.000000 0.000000
outer loop
vertex -0.008526 -0.007800 0.003242
vertex -0.006173 -0.007800 0.005000
vertex -0.008526 -0.007800 0.006758
endloop
endfacet
facet normal 0.000000 -1.000000 0.000000
outer loop
vertex -0.006173 -0.007800 0.005000
vertex -0.006173 -0.007800 0.015000
vertex -0.008526 -0.007800 0.006758
endloop
endfacet
endsolid Exported from Blender-2.79 (sub 0)
